<svg aria-hidden="true" style="position: absolute; width: 0; height: 0; overflow: hidden;" version="1.1" xmlns="http://www.w3.org/2000/svg" xmlns:xlink="http://www.w3.org/1999/xlink">
<defs>

<symbol id="icon-check" viewBox="0 0 16 15"><path d="M3.95703 7.75166L3.88825 7.68604L3.81923 7.75141L2.93123 8.59258L2.85486 8.66492L2.93097 8.73753L6.42671 12.0724L6.49574 12.1382L6.56476 12.0724L14.069 4.91352L14.1449 4.84116L14.069 4.76881L13.1873 3.92764L13.1183 3.86183L13.0493 3.92761L6.49577 10.1735L3.95703 7.75166Z" fill="white" stroke="white" stroke-width="0.2"/></symbol>

<symbol id="icon-checkbox-empty" viewBox="0 0 16 15">
<path d="M14.2222 1.66667V13.3333H1.77778V1.66667H14.2222ZM14.2222 0H1.77778C0.8 0 0 0.75 0 1.66667V13.3333C0 14.25 0.8 15 1.77778 15H14.2222C15.2 15 16 14.25 16 13.3333V1.66667C16 0.75 15.2 0 14.2222 0Z"/>
</symbol>

<symbol id="icon-close-black" viewBox="0 0 18 18">
<path d="M15 4.10786L13.8921 3L9.5 7.39214L5.10786 3L4 4.10786L8.39214 8.5L4 12.8921L5.10786 14L9.5 9.60786L13.8921 14L15 12.8921L10.6079 8.5L15 4.10786Z"/>
</symbol>

<symbol id="icon-basket-2" viewBox="0 0 32 32">
<title>icon-basket-2</title>
<path fill="#ff9846" style="fill: var(--color1, #ff9846)" d="M21.065 26.3c0.052 0.009 0.104 0.013 0.155 0.013 0.45 0 0.847-0.325 0.924-0.784l0.938-5.625c0.085-0.511-0.26-0.994-0.771-1.079s-0.994 0.26-1.079 0.771l-0.938 5.625c-0.085 0.511 0.26 0.994 0.771 1.079z"></path>
<path fill="#ff9846" style="fill: var(--color1, #ff9846)" d="M9.919 25.529c0.076 0.459 0.474 0.784 0.924 0.784 0.051 0 0.103-0.004 0.155-0.013 0.511-0.085 0.856-0.568 0.771-1.079l-0.938-5.625c-0.085-0.511-0.568-0.856-1.079-0.771s-0.856 0.568-0.771 1.079l0.938 5.625z"></path>
<path fill="#ff9846" style="fill: var(--color1, #ff9846)" d="M31.063 11.312h-3.299l-7.219-9.023c-0.323-0.404-0.913-0.47-1.318-0.146s-0.47 0.913-0.146 1.318l6.282 7.852h-18.724l6.281-7.852c0.323-0.404 0.258-0.994-0.146-1.318s-0.994-0.258-1.318 0.146l-7.219 9.023h-3.299c-0.518 0-0.938 0.42-0.938 0.938v3.75c0 0.518 0.42 0.938 0.938 0.938h1.168l3.556 12.445c0.115 0.402 0.483 0.68 0.901 0.68h18.875c0.419 0 0.786-0.277 0.901-0.68l3.556-12.445h1.168c0.518 0 0.938-0.42 0.938-0.938v-3.75c0-0.518-0.42-0.938-0.938-0.938zM24.73 28.187h-17.461l-3.214-11.25h23.889l-3.214 11.25zM30.125 15.063c-3.212 0-25.207 0-28.25 0v-1.875h28.25v1.875z"></path>
<path fill="#ff9846" style="fill: var(--color1, #ff9846)" d="M16 26.312c0.518 0 0.938-0.42 0.938-0.938v-5.625c0-0.518-0.42-0.938-0.938-0.938s-0.938 0.42-0.938 0.938v5.625c0 0.518 0.42 0.938 0.938 0.938z"></path>
</symbol>
<symbol id="icon-card" viewBox="0 0 32 32">
<title>icon-card</title>
<path d="M28.667 5.333h-25.333c-1.837 0-3.333 1.496-3.333 3.333v14.667c0 1.837 1.496 3.333 3.333 3.333h25.333c1.837 0 3.333-1.496 3.333-3.333v-14.667c0-1.837-1.496-3.333-3.333-3.333zM30.667 23.333c0 1.103-0.897 2-2 2h-25.333c-1.103 0-2-0.897-2-2v-14.667c0-1.103 0.897-2 2-2h25.333c1.103 0 2 0.897 2 2v14.667z"></path>
<path d="M31.333 9.333h-30.667c-0.368 0-0.667 0.299-0.667 0.667v4c0 0.368 0.299 0.667 0.667 0.667h30.667c0.368 0 0.667-0.299 0.667-0.667v-4c0-0.368-0.299-0.667-0.667-0.667zM30.667 13.333h-29.333v-2.667h29.333v2.667z"></path>
<path d="M12.667 18.667h-8c-0.368 0-0.667 0.299-0.667 0.667s0.299 0.667 0.667 0.667h8c0.368 0 0.667-0.299 0.667-0.667s-0.299-0.667-0.667-0.667z"></path>
<path d="M12.667 21.333h-8c-0.368 0-0.667 0.299-0.667 0.667s0.299 0.667 0.667 0.667h8c0.368 0 0.667-0.299 0.667-0.667s-0.299-0.667-0.667-0.667z"></path>
<path d="M26 17.333h-1.333c-1.103 0-2 0.897-2 2v1.333c0 1.103 0.897 2 2 2h1.333c1.103 0 2-0.897 2-2v-1.333c0-1.103-0.897-2-2-2zM26.667 20.667c0 0.368-0.299 0.667-0.667 0.667h-1.333c-0.368 0-0.667-0.299-0.667-0.667v-1.333c0-0.368 0.299-0.667 0.667-0.667h1.333c0.368 0 0.667 0.299 0.667 0.667v1.333z"></path>
</symbol>
<symbol id="icon-clock" viewBox="0 0 32 32">
<title>icon-clock</title>
<path fill="#ff9846" style="fill: var(--color1, #ff9846)" d="M16 5.217c0.383 0 0.696-0.313 0.696-0.696v-0.348c0-0.383-0.313-0.696-0.696-0.696s-0.696 0.313-0.696 0.696v0.348c0 0.383 0.313 0.696 0.696 0.696z"></path>
<path fill="#ff9846" style="fill: var(--color1, #ff9846)" d="M16 26.783c-0.383 0-0.696 0.313-0.696 0.695v0.348c0 0.383 0.313 0.696 0.696 0.696s0.696-0.313 0.696-0.696v-0.348c0-0.383-0.313-0.695-0.696-0.695z"></path>
<path fill="#ff9846" style="fill: var(--color1, #ff9846)" d="M4.522 15.304h-0.348c-0.383 0-0.696 0.313-0.696 0.696s0.313 0.696 0.696 0.696h0.348c0.383 0 0.696-0.313 0.696-0.696s-0.313-0.696-0.696-0.696z"></path>
<path fill="#ff9846" style="fill: var(--color1, #ff9846)" d="M27.826 15.304h-0.348c-0.383 0-0.696 0.313-0.696 0.696s0.313 0.696 0.696 0.696h0.348c0.383 0 0.696-0.313 0.696-0.696s-0.313-0.696-0.696-0.696z"></path>
<path fill="#ff9846" style="fill: var(--color1, #ff9846)" d="M8.139 7.165c-0.278-0.278-0.696-0.278-0.974 0s-0.278 0.696 0 0.974l0.243 0.243c0.139 0.139 0.313 0.209 0.487 0.209s0.348-0.070 0.487-0.209c0.278-0.278 0.278-0.696 0-0.974l-0.243-0.243z"></path>
<path fill="#ff9846" style="fill: var(--color1, #ff9846)" d="M7.408 23.617l-0.243 0.243c-0.278 0.278-0.278 0.696 0 0.974 0.139 0.139 0.313 0.209 0.487 0.209s0.348-0.070 0.487-0.209l0.243-0.243c0.278-0.278 0.278-0.696 0-0.974s-0.696-0.278-0.974 0z"></path>
<path fill="#ff9846" style="fill: var(--color1, #ff9846)" d="M23.86 7.165l-0.243 0.243c-0.278 0.278-0.278 0.696 0 0.974 0.139 0.139 0.313 0.209 0.487 0.209s0.348-0.070 0.487-0.209l0.243-0.243c0.278-0.278 0.278-0.696 0-0.974s-0.696-0.278-0.974 0z"></path>
<path fill="#ff9846" style="fill: var(--color1, #ff9846)" d="M16.695 15.722v-6.33c0-0.383-0.313-0.696-0.696-0.696s-0.696 0.313-0.696 0.696v6.609c0 0.174 0.070 0.348 0.209 0.487l7.617 7.617c0.139 0.139 0.313 0.209 0.487 0.209s0.348-0.070 0.487-0.209c0.278-0.278 0.278-0.696 0-0.974l-7.409-7.409z"></path>
<path fill="#ff9846" style="fill: var(--color1, #ff9846)" d="M16 0c-8.835 0-16 7.165-16 16s7.165 16 16 16c8.835 0 16-7.165 16-16s-7.165-16-16-16zM16 30.609c-8.070 0-14.609-6.539-14.609-14.609s6.539-14.609 14.609-14.609c8.070 0 14.609 6.539 14.609 14.609s-6.539 14.609-14.609 14.609z"></path>
</symbol>
<symbol id="icon-corn" viewBox="0 0 32 32">
<title>icon-corn</title>
<path fill="#a4acad" style="fill: var(--color2, #a4acad)" d="M28.849 2.381c-1.749-1.749-4.586-1.749-6.335 0l-14.638 14.638c-1.485 1.489-1.736 3.81-0.604 5.582l-5.768 5.768c-0.43 0.43-0.559 1.076-0.327 1.638s0.782 0.928 1.39 0.927c0.399 0.001 0.781-0.157 1.063-0.439l5.768-5.768c1.771 1.136 4.095 0.885 5.583-0.604l14.638-14.638c1.747-1.751 1.747-4.585 0-6.336l-0.77-0.769zM2.927 29.789c-0.202 0.191-0.517 0.191-0.718 0-0.197-0.199-0.197-0.519 0-0.718l5.693-5.692 0.719 0.718-5.693 5.692zM28.915 8.783l-14.638 14.635c-0.653 0.654-1.54 1.021-2.464 1.021s-1.81-0.367-2.464-1.021l-0.768-0.768c-1.358-1.362-1.358-3.566 0-4.928l14.635-14.638c1.361-1.359 3.567-1.359 4.928 0l0.771 0.771c1.359 1.362 1.359 3.566 0 4.928z"></path>
<path fill="#a4acad" style="fill: var(--color2, #a4acad)" d="M25.683 3.097c-0.666-0.002-1.305 0.262-1.774 0.734l-2.489 2.489c-0.135 0.124-0.191 0.311-0.146 0.488s0.183 0.316 0.36 0.361 0.365-0.010 0.489-0.145l2.489-2.489c0.599-0.571 1.541-0.571 2.14 0 0.195 0.189 0.506 0.186 0.698-0.006s0.195-0.502 0.006-0.698c-0.469-0.471-1.107-0.736-1.773-0.735z"></path>
<path fill="#a4acad" style="fill: var(--color2, #a4acad)" d="M19.282 9.659c0.132-0 0.259-0.053 0.352-0.146l1.067-1.067c0.129-0.125 0.181-0.31 0.136-0.484s-0.181-0.31-0.356-0.356c-0.174-0.046-0.359 0.006-0.484 0.136l-1.067 1.067c-0.142 0.142-0.185 0.356-0.108 0.542s0.259 0.307 0.46 0.307z"></path>
<path fill="#a4acad" style="fill: var(--color2, #a4acad)" d="M17.86 11.295c0.144-0.144 0.187-0.36 0.109-0.548s-0.261-0.31-0.465-0.31c-0.203 0-0.387 0.123-0.465 0.31s-0.035 0.404 0.109 0.548c0.196 0.196 0.514 0.196 0.711 0z"></path>
<path fill="#a4acad" style="fill: var(--color2, #a4acad)" d="M21.064 13.788l-7.112 7.112c-0.129 0.125-0.181 0.31-0.136 0.484s0.182 0.31 0.356 0.356c0.174 0.046 0.359-0.006 0.484-0.136l7.112-7.112c0.189-0.195 0.186-0.506-0.006-0.698s-0.503-0.195-0.698-0.006z"></path>
</symbol>
<symbol id="icon-drinks" viewBox="0 0 32 32">
<title>icon-drinks</title>
<path fill="#a4acad" style="fill: var(--color2, #a4acad)" d="M24.115 12.026h-0.376c-0.167-4.016-3.388-7.237-7.362-7.446v-4.058c0-0.251-0.167-0.418-0.418-0.418s-0.418 0.167-0.418 0.418v4.058c-4.016 0.209-7.195 3.43-7.362 7.446h-0.293c-0.251 0-0.418 0.167-0.418 0.418v2.133c0 0.251 0.167 0.418 0.418 0.418h0.293l1.548 16.523c0 0.209 0.209 0.376 0.418 0.376h11.503c0.209 0 0.377-0.167 0.418-0.376l1.548-16.523h0.502c0.251 0 0.418-0.167 0.418-0.418v-2.133c0-0.251-0.209-0.418-0.418-0.418zM16.376 5.417c3.514 0.209 6.358 3.054 6.526 6.609h-6.526v-6.609zM15.54 5.417v6.609h-6.525c0.167-3.556 2.97-6.4 6.525-6.609zM8.303 12.863h7.237v1.297h-7.237v-1.297zM9.014 14.996h6.525v2.719h-6.274l-0.251-2.719zM21.271 31.059h-10.75l-1.171-12.549h6.191v7.237c0 0.251 0.167 0.418 0.418 0.418s0.418-0.167 0.418-0.418v-7.237h6.065l-1.171 12.549zM22.525 17.673h-6.149v-2.677h6.4l-0.251 2.677zM23.697 14.159h-7.32v-1.297h7.32v1.297z"></path>
<path fill="#a4acad" style="fill: var(--color2, #a4acad)" d="M12.612 19.765c-1.004 0-1.841 0.837-1.841 1.84s0.837 1.841 1.841 1.841 1.841-0.837 1.841-1.841c0-1.004-0.837-1.84-1.841-1.84zM12.612 22.609c-0.544 0-1.004-0.46-1.004-1.004s0.46-1.004 1.004-1.004 1.004 0.46 1.004 1.004c0 0.544-0.46 1.004-1.004 1.004z"></path>
<path fill="#a4acad" style="fill: var(--color2, #a4acad)" d="M18.928 25.914c-1.004 0-1.84 0.837-1.84 1.841s0.795 1.841 1.84 1.841c1.004 0 1.841-0.837 1.841-1.841s-0.837-1.841-1.841-1.841zM18.928 28.758c-0.544 0-1.004-0.46-1.004-1.004s0.418-1.004 1.004-1.004c0.544 0 1.004 0.46 1.004 1.004s-0.46 1.004-1.004 1.004z"></path>
<path fill="#a4acad" style="fill: var(--color2, #a4acad)" d="M19.179 20.35c-0.837 0-1.548 0.711-1.548 1.548s0.711 1.548 1.548 1.548c0.837 0 1.548-0.711 1.548-1.548s-0.711-1.548-1.548-1.548zM19.179 22.609c-0.376 0-0.711-0.335-0.711-0.711s0.335-0.711 0.711-0.711 0.711 0.335 0.711 0.711c0 0.377-0.293 0.711-0.711 0.711z"></path>
<path fill="#a4acad" style="fill: var(--color2, #a4acad)" d="M13.574 26.206c-0.837 0-1.548 0.711-1.548 1.548s0.711 1.548 1.548 1.548c0.837 0 1.548-0.711 1.548-1.548s-0.711-1.548-1.548-1.548zM13.574 28.465c-0.376 0-0.711-0.335-0.711-0.711s0.335-0.711 0.711-0.711c0.377 0 0.711 0.335 0.711 0.711 0 0.418-0.335 0.711-0.711 0.711z"></path>
</symbol>
<symbol id="icon-foods" viewBox="0 0 32 32">
<title>icon-foods</title>
<path fill="#ff9846" style="fill: var(--color1, #ff9846)" d="M30.386 9.064c-1.459-0.91-2.881-1.055-4.133-0.426-0.326-0.323-0.991-0.854-1.894-0.92-0.805-0.059-1.601 0.261-2.365 0.951-0.075-0.672-0.386-1.295-0.877-1.76-0.582-0.542-1.351-0.839-2.146-0.83-1.453 0-2.71 1.094-3.013 2.506l-3.545-2.282c-0.077-0.049-0.163-0.082-0.253-0.097s-0.182-0.011-0.271 0.012c-0.090 0.023-0.174 0.065-0.247 0.122s-0.134 0.129-0.178 0.21c-0.044 0.080-0.085 0.161-0.124 0.243-1.141-0.421-2.571-0.122-3.42 0.761-0.356 0.365-0.611 0.816-0.74 1.309s-0.13 1.011-0 1.504h-0.215c-0.55-1.991-2.568-3.038-2.654-3.082-0.082-0.042-0.176-0.052-0.265-0.030s-0.167 0.076-0.22 0.151c-0.052 0.075-0.076 0.167-0.066 0.258s0.053 0.176 0.12 0.238c0.032 0.052 0.275 0.525-0.278 2.142-1.382-0.772-2.833-1.020-3.125-1.064-0.034-0.007-0.070-0.010-0.105-0.010-0.096 0.002-0.188 0.039-0.257 0.106s-0.111 0.156-0.116 0.252c-0.006 0.096 0.025 0.19 0.086 0.264s0.148 0.122 0.243 0.135c0.002 0 0.024 0.003 0.061 0.009 0.023 0.032 0.131 0.181 0.138 0.191 0.209 0.295 0.5 0.947 0.703 2.377 0.155 1.094 0.781 2.017 1.465 2.613-0.5 0.109-0.861 0.411-0.91 0.797-0.025 0.199-0.038 0.4-0.038 0.6 0 2.178 1.449 4.209 4.080 5.719 1.253 0.719 2.707 1.28 4.286 1.666v1.381c0 0.101 0.040 0.197 0.111 0.269s0.168 0.111 0.269 0.111h9.826c0.101 0 0.197-0.040 0.269-0.111s0.111-0.168 0.111-0.269v-1.381c1.58-0.386 3.033-0.947 4.286-1.666 2.631-1.51 4.080-3.541 4.080-5.719-0-0.201-0.013-0.401-0.038-0.6-0.015-0.111-0.055-0.218-0.118-0.311 1.228-0.45 2.115-1.49 2.586-2.468 0.325-0.669 0.391-1.434 0.185-2.149s-0.668-1.328-1.298-1.722zM18.97 6.84c1.159 0 2.064 0.746 2.249 1.79-0.216-0.004-0.459 0.001-0.718 0.021-0.148-0.34-0.409-0.618-0.739-0.787s-0.708-0.219-1.070-0.142-0.687 0.278-0.918 0.568c-0.231 0.289-0.356 0.65-0.352 1.021-0 0.076 0.004 0.152 0.013 0.227l-0.778-0.501c0.104-1.21 1.12-2.196 2.313-2.196zM19.683 8.765c-0.529 0.102-1.037 0.297-1.5 0.574 0-0.009-0.001-0.018-0.001-0.028-0.005-0.177 0.046-0.35 0.146-0.496s0.242-0.257 0.408-0.317c0.166-0.060 0.347-0.067 0.517-0.019s0.32 0.148 0.43 0.287zM12.086 6.998l5.090 3.276c-0.138 0.194-0.255 0.402-0.35 0.62l-3.401-2.191c-0.080-0.052-0.171-0.085-0.266-0.095s-0.191 0.002-0.28 0.036c-0.090 0.034-0.171 0.088-0.237 0.159s-0.114 0.156-0.141 0.248c-0.226 0.777-0.022 1.77 0.56 2.724 0.545 0.894 1.393 1.705 2.414 2.319-0.201 0.242-0.393 0.476-0.48 0.779h-0.169c-1.345-0.972-2.366-2.316-2.88-3.797-0.51-1.47-0.46-2.914 0.141-4.079zM16.027 13.040c0.037 0.023 0.076 0.042 0.118 0.055-0.063 0.133-0.134 0.262-0.212 0.386-1.969-1.153-2.921-2.898-2.746-4.028l3.395 2.187c-0.010 0.046-0.020 0.092-0.029 0.139-0.023 0.122-0.048 0.238-0.075 0.348-0.11-0.040-0.23-0.042-0.341-0.004s-0.205 0.112-0.267 0.212c-0.072 0.114-0.095 0.252-0.066 0.384s0.109 0.247 0.222 0.32v-0zM11.56 12.133c0.499 1.040 1.198 1.971 2.057 2.741h-2.057v-2.741zM8.468 8.081c0.634-0.66 1.739-0.889 2.598-0.578-0.057 0.189-0.103 0.38-0.139 0.574-0.208-0.070-0.427-0.105-0.647-0.105-0.503 0.003-0.985 0.205-1.339 0.563s-0.552 0.841-0.55 1.344c0.001 0.165 0.023 0.33 0.065 0.489h-0.481c-0.145-0.388-0.176-0.81-0.088-1.215s0.289-0.777 0.581-1.071zM10.965 10.367h-1.705c-0.070-0.154-0.107-0.32-0.108-0.489-0.002-0.302 0.116-0.592 0.328-0.807s0.5-0.337 0.802-0.34c0.195-0.002 0.387 0.043 0.56 0.131-0.019 0.505 0.023 1.010 0.124 1.505v-0zM7.092 11.127h3.708v3.746h-4.54c0.040-0.317 0.050-0.638 0.031-0.957 0.591-0.952 0.86-1.886 0.801-2.789v-0zM4.719 8.468c0.557 0.441 1.262 1.163 1.52 2.127 0.181 0.677 0.117 1.392-0.187 2.135-0.133-0.374-0.319-0.728-0.551-1.051-0.343-0.47-0.761-0.881-1.238-1.215 0.284-0.795 0.437-1.464 0.456-1.995zM1.984 12.198c-0.134-0.942-0.323-1.687-0.565-2.225 1.047 0.301 2.594 0.929 3.463 2.146 0.554 0.775 0.758 1.701 0.61 2.754h-0.262c-0.463-2.544-1.905-3.265-1.968-3.296-0.045-0.022-0.094-0.035-0.144-0.037s-0.1 0.004-0.147 0.021c-0.047 0.017-0.091 0.042-0.128 0.076s-0.068 0.074-0.089 0.119c-0.022 0.045-0.034 0.094-0.037 0.144s0.005 0.1 0.021 0.147c0.017 0.047 0.043 0.091 0.076 0.128s0.074 0.067 0.119 0.089c0.012 0.006 1.109 0.555 1.524 2.61h-0.31c-0.629-0.071-1.947-1.154-2.163-2.675l-0 0zM19.942 24.702h-9.065v-0.831c2.992 0.595 6.073 0.595 9.065 0v0.831zM28.284 16.753h-19.033c-0.101 0-0.197 0.040-0.269 0.111s-0.111 0.168-0.111 0.269c0 0.101 0.040 0.197 0.111 0.269s0.168 0.111 0.269 0.111h18.879c-0.433 1.445-1.645 2.786-3.52 3.862-2.451 1.407-5.719 2.182-9.201 2.182s-6.749-0.775-9.201-2.182c-1.875-1.076-3.088-2.417-3.52-3.862h3.903c0.101 0 0.197-0.040 0.269-0.111s0.111-0.168 0.111-0.269-0.040-0.198-0.111-0.269c-0.071-0.071-0.168-0.111-0.269-0.111h-4.056c-0.035-0.311-0.033-0.625 0.006-0.936 0.031-0.055 0.238-0.184 0.576-0.184h24.584c0.338 0 0.545 0.129 0.576 0.184 0.021 0.165 0.031 0.332 0.031 0.498-0 0.146-0.009 0.292-0.025 0.438zM17.094 14.873c0.603-0.229 1.282-0.44 2-0.633 0.013 0.013 0.025 0.025 0.039 0.037 0.275 0.228 0.573 0.428 0.889 0.596h-2.927zM30.813 12.606c-0.515 1.071-1.605 2.228-3.119 2.268h-5.772c-0.661-0.212-1.294-0.504-1.884-0.871 1.231-0.293 2.527-0.536 3.729-0.733 0.017 0.022 0.035 0.043 0.054 0.063 0.478 0.499 1.43 1.32 2.513 1.32 0.032 0 0.064-0.001 0.096-0.002 0.050-0.002 0.1-0.013 0.145-0.034s0.087-0.051 0.121-0.088c0.034-0.037 0.061-0.080 0.078-0.127s0.025-0.097 0.023-0.148c-0.002-0.050-0.014-0.099-0.036-0.145s-0.052-0.086-0.089-0.12c-0.037-0.034-0.081-0.060-0.128-0.076s-0.098-0.024-0.148-0.021c-0.642 0.028-1.279-0.407-1.695-0.769 2.177-0.329 3.849-0.489 3.889-0.493 0.1-0.009 0.193-0.058 0.257-0.136s0.095-0.178 0.086-0.278-0.058-0.193-0.136-0.257c-0.078-0.064-0.178-0.095-0.278-0.086-0.164 0.015-1.84 0.176-3.999 0.503 0.287-0.52 0.853-1.246 1.833-1.408 0.099-0.017 0.187-0.072 0.246-0.154s0.082-0.183 0.066-0.282c-0.016-0.099-0.071-0.188-0.153-0.246s-0.183-0.083-0.282-0.067c-1.602 0.264-2.335 1.631-2.576 2.206-0.013 0.031-0.023 0.062-0.032 0.094-1.255 0.206-2.615 0.464-3.907 0.779 0.213-0.606 0.68-1.527 1.612-1.842 0.048-0.016 0.092-0.041 0.13-0.073s0.069-0.073 0.092-0.118c0.022-0.045 0.036-0.094 0.039-0.144s-0.003-0.1-0.019-0.148-0.042-0.091-0.075-0.129c-0.033-0.038-0.074-0.068-0.119-0.090s-0.094-0.035-0.144-0.038c-0.050-0.003-0.1 0.004-0.148 0.021-1.474 0.5-2.033 2.053-2.204 2.697-0.007 0.028-0.013 0.056-0.017 0.084-0.986 0.267-1.905 0.57-2.673 0.909 0.369-0.455 0.855-1.145 1.113-2.501 0.248-1.302 1.098-2.114 2.528-2.412 0.73-0.14 1.478-0.158 2.214-0.053 0.059 0.010 0.12 0.007 0.177-0.011s0.11-0.049 0.153-0.091c0.646-0.627 1.293-0.923 1.924-0.879 0.937 0.065 1.57 0.864 1.576 0.871 0.057 0.074 0.139 0.125 0.231 0.142s0.187-0 0.267-0.049c1.071-0.65 2.287-0.56 3.612 0.268 0.471 0.295 0.817 0.755 0.97 1.289s0.104 1.107-0.14 1.607l-0 0z"></path>
</symbol>




<symbol id="icon-magnifier" viewBox="0 0 32 32">
<title>icon-magnifier</title>
<path fill="#a4acad" style="fill: var(--color2, #a4acad)" d="M31.805 30.862l-9.737-9.737c2.022-2.245 3.265-5.206 3.265-8.459 0-6.984-5.682-12.667-12.667-12.667s-12.667 5.682-12.667 12.667c0 6.984 5.682 12.667 12.667 12.667 3.253 0 6.213-1.243 8.459-3.265l9.737 9.737c0.13 0.13 0.301 0.195 0.471 0.195s0.341-0.065 0.471-0.195c0.26-0.26 0.26-0.682-0-0.943zM12.667 24c-6.249 0-11.333-5.084-11.333-11.333s5.085-11.333 11.333-11.333c6.249 0 11.333 5.084 11.333 11.333s-5.085 11.333-11.333 11.333z"></path>
</symbol>
<symbol id="icon-map" viewBox="0 0 32 32">
<title>icon-map</title>
<path fill="#ff9846" style="fill: var(--color1, #ff9846)" d="M16 32c-8.837 0-16-7.163-16-16s7.163-16 16-16c8.837 0 16 7.163 16 16s-7.163 16-16 16z"></path>
<path fill="#f2f2f2" style="fill: var(--color5, #f2f2f2)" d="M16 5.867c-3.793 0-6.878 3.085-6.878 6.878 0 1.524 0.897 3.842 2.824 7.294 1.315 2.356 2.623 4.345 2.678 4.429l0.946 1.434c0.095 0.145 0.257 0.232 0.43 0.232s0.335-0.087 0.43-0.232l0.946-1.434c0.055-0.083 1.354-2.055 2.678-4.429 1.927-3.452 2.824-5.77 2.824-7.294 0-3.793-3.086-6.878-6.878-6.878zM19.154 19.537c-1.306 2.341-2.585 4.282-2.639 4.364l-0.516 0.782-0.515-0.781c-0.054-0.082-1.342-2.041-2.639-4.364-1.787-3.202-2.693-5.488-2.693-6.792 0-3.224 2.623-5.847 5.847-5.847s5.847 2.623 5.847 5.847c0 1.305-0.906 3.59-2.693 6.792z"></path>
<path fill="#f2f2f2" style="fill: var(--color5, #f2f2f2)" d="M16 8.888c-2.103 0-3.814 1.711-3.814 3.814s1.711 3.814 3.814 3.814c2.103 0 3.814-1.711 3.814-3.814s-1.711-3.814-3.814-3.814zM16 15.485c-1.534 0-2.783-1.248-2.783-2.783s1.248-2.783 2.783-2.783 2.783 1.248 2.783 2.783c0 1.534-1.248 2.783-2.783 2.783z"></path>
</symbol>
<symbol id="icon-map-2" viewBox="0 0 32 32">
<title>icon-map-2</title>
<path fill="#f46d40" style="fill: var(--color6, #f46d40)" d="M16 0c-5.988 0-10.86 4.872-10.86 10.86 0 2.406 1.417 6.066 4.459 11.517 2.076 3.719 4.142 6.861 4.229 6.993l1.493 2.264c0.151 0.228 0.406 0.366 0.679 0.366s0.529-0.137 0.679-0.366l1.493-2.263c0.086-0.131 2.137-3.245 4.229-6.994 3.042-5.451 4.459-9.111 4.459-11.517 0-5.988-4.872-10.86-10.86-10.86zM20.981 21.584c-2.063 3.696-4.081 6.761-4.166 6.89l-0.814 1.234-0.814-1.234c-0.085-0.13-2.12-3.223-4.167-6.891-2.822-5.056-4.252-8.665-4.252-10.724 0-5.091 4.142-9.233 9.233-9.233s9.233 4.142 9.233 9.233c0 2.060-1.431 5.668-4.252 10.724z"></path>
<path fill="#f46d40" style="fill: var(--color6, #f46d40)" d="M16 4.771c-3.32 0-6.021 2.701-6.021 6.021s2.701 6.021 6.021 6.021c3.32 0 6.021-2.701 6.021-6.021s-2.701-6.021-6.021-6.021zM16 15.186c-2.423 0-4.394-1.971-4.394-4.394s1.971-4.394 4.394-4.394c2.423 0 4.394 1.971 4.394 4.394s-1.971 4.394-4.394 4.394z"></path>
</symbol>
<symbol id="icon-orange-arrow-left" viewBox="0 0 32 32">
<title>icon-orange-arrow-left</title>
<path fill="#ff9846" style="fill: var(--color1, #ff9846)" d="M32 16c0 8.837-7.163 16-16 16s-16-7.163-16-16c0-8.837 7.163-16 16-16s16 7.163 16 16z"></path>
<path fill="none" stroke="#f2f2f2" style="stroke: var(--color5, #f2f2f2)" stroke-linejoin="miter" stroke-linecap="round" stroke-miterlimit="4" stroke-width="1.6" d="M18.8 9.2l-7.2 7.2 7.2 7.2"></path>
</symbol>
<symbol id="icon-orange-arrow-right" viewBox="0 0 32 32">
<title>icon-orange-arrow-right</title>
<path fill="#ff9846" style="fill: var(--color1, #ff9846)" d="M32 16c0 8.837-7.163 16-16 16s-16-7.163-16-16c0-8.837 7.163-16 16-16s16 7.163 16 16z"></path>
<path fill="none" stroke="#f2f2f2" style="stroke: var(--color5, #f2f2f2)" stroke-linejoin="miter" stroke-linecap="round" stroke-miterlimit="4" stroke-width="1.6" d="M12.8 9.6l7.2 7.2-7.2 7.2"></path>
</symbol>
<symbol id="icon-pizza" viewBox="0 0 32 32">
<title>icon-pizza</title>
<path fill="#a4acad" style="fill: var(--color2, #a4acad)" d="M31.049 12.349c-0.083-0.124-0.166-0.249-0.29-0.29 0.124-0.166 0.207-0.415 0.166-0.622-0.041-0.913-0.456-2.78-2.489-5.103-2.075-2.324-3.9-2.946-4.772-3.112-0.166-0.042-0.29 0-0.415 0-0.041-0.207-0.166-0.415-0.332-0.539-0.705-0.581-2.365-1.494-5.477-1.494s-4.772 0.954-5.518 1.494c-0.373 0.29-0.498 0.747-0.29 1.162l0.664 1.535 4.149 10.041c0 0.041 0.041 0.083 0.083 0.124-0.083-0.041-0.207-0.041-0.332-0.041l-10.912 0.954-1.66 0.124c-0.456 0.041-0.83 0.373-0.913 0.83-0.166 0.913-0.207 2.821 1.286 5.518 1.452 2.738 3.112 3.734 3.942 4.108 0.124 0.041 0.249 0.083 0.415 0.083 0 0 0 0 0.041 0 0 0.207 0.083 0.415 0.207 0.622 0.581 0.705 1.95 2.033 4.979 2.738 1.079 0.249 1.992 0.332 2.78 0.332 1.411 0 2.365-0.29 2.904-0.539 0.124-0.041 0.249-0.166 0.332-0.249 0.166 0.124 0.373 0.249 0.581 0.249 0.083 0 0.166 0 0.249 0 0.996 0 2.78-0.29 5.062-1.909 2.531-1.784 3.361-3.527 3.651-4.398 0.041-0.124 0.041-0.29 0.041-0.415 0.207-0.041 0.415-0.124 0.581-0.29 0.664-0.664 1.784-2.199 2.116-5.269 0.415-3.070-0.332-4.854-0.83-5.643zM23.29 4.133c0.041-0.083 0.124-0.124 0.166-0.083 0.788 0.166 2.448 0.705 4.315 2.821s2.241 3.776 2.282 4.606c0 0.083-0.041 0.124-0.124 0.166l-0.664 0.249c-0.083-0.83-0.498-2.406-2.199-4.357s-3.278-2.531-4.108-2.697l0.332-0.705zM29.307 17.701c-0.29 2.531-1.245 3.734-1.66 4.149-0.041 0.041-0.083 0.041-0.124 0l-4.854-2.821-4.274-2.697 4.854-1.618 5.269-1.494c0.041 0 0.083 0 0.124 0.041 0.332 0.498 0.954 1.909 0.664 4.44zM22.71 5.627c0.539 0.083 2.033 0.539 3.776 2.489 1.701 1.909 1.95 3.444 1.992 3.983 0 0.041-0.041 0.083-0.083 0.083l-5.352 1.743-4.854 1.369 2.033-4.689 2.407-4.937c0-0.042 0.041-0.042 0.083-0.042zM12.337 3.553c-0.041-0.083 0-0.166 0.041-0.207 0.664-0.498 2.158-1.328 4.979-1.328s4.315 0.83 4.937 1.328c0.041 0.042 0.083 0.124 0.041 0.207l-0.29 0.664c-0.705-0.498-2.116-1.245-4.689-1.245s-4.066 0.747-4.73 1.245l-0.29-0.664zM13.001 5.088c0-0.042 0-0.083 0.041-0.124 0.456-0.332 1.784-1.162 4.357-1.162 2.489 0 3.776 0.705 4.315 1.162 0.041 0.041 0.041 0.083 0.041 0.124l-2.241 5.186-2.324 4.813-4.191-9.999zM17.274 16.041c0 0.041 0 0.041 0 0.083 0 0-0.041 0-0.083 0.041-0.041 0-0.041 0-0.083-0.041 0-0.041 0-0.083-0.041-0.124l-0.041-0.041c0.041 0 0.124 0.041 0.166 0.041 0.041 0.041 0.041 0.041 0.083 0.041zM16.776 17.286l1.037 5.020 0.871 5.394c0 0.041 0 0.083-0.041 0.124-0.498 0.249-1.992 0.705-4.481 0.124s-3.568-1.66-3.942-2.116c-0.041-0.041-0.041-0.083 0-0.124l3.361-4.523 3.195-3.9zM8.478 26.248c-0.041 0.041-0.124 0.083-0.207 0.041-0.581-0.249-2.158-1.162-3.568-3.776-1.328-2.489-1.328-4.191-1.162-4.979 0-0.083 0.083-0.124 0.166-0.124l0.747-0.041c-0.124 0.83-0.083 2.489 1.12 4.73 1.245 2.282 2.572 3.195 3.361 3.568l-0.456 0.581zM6.279 21.726c-1.203-2.241-1.12-3.776-1.037-4.357 0-0.041 0.042-0.083 0.083-0.083l10.871-0.913c-0.041 0.041-0.083 0.041-0.083 0.083l-3.153 4.232-3.444 4.274c-0.041 0.041-0.083 0.041-0.124 0.041-0.539-0.249-1.867-1.037-3.112-3.278zM18.892 29.526c-0.581 0.29-2.282 0.83-5.186 0.166-2.78-0.664-4.025-1.826-4.523-2.448-0.041-0.041-0.041-0.124 0-0.207l0.456-0.581c0.539 0.664 1.784 1.701 4.274 2.282 0.954 0.207 1.743 0.29 2.448 0.29 1.162 0 1.95-0.249 2.448-0.456l0.124 0.747c0.083 0.124 0.041 0.207-0.041 0.207zM19.764 27.659l-1.12-5.518-0.83-4.979 4.44 2.572 4.606 2.946c0.041 0.041 0.041 0.083 0.041 0.124-0.166 0.539-0.788 1.95-2.904 3.444-2.116 1.452-3.61 1.577-4.191 1.535 0-0.041-0.041-0.041-0.041-0.124zM25.033 27.7c-2.324 1.618-4.025 1.784-4.813 1.743-0.083 0-0.124-0.041-0.166-0.124l-0.124-0.747c0.041 0 0.041 0 0.083 0 0.871 0 2.448-0.249 4.481-1.66 2.116-1.494 2.904-2.946 3.153-3.734l0.622 0.373c0.083 0.041 0.083 0.124 0.083 0.207-0.166 0.622-0.871 2.241-3.319 3.942zM31.091 17.909c-0.332 2.821-1.328 4.191-1.909 4.772-0.041 0.041-0.124 0.083-0.207 0.041l-0.622-0.373c0.581-0.622 1.494-1.992 1.784-4.523 0.29-2.572-0.29-4.108-0.705-4.854l0.705-0.207c0.083-0.041 0.166 0 0.207 0.083 0.415 0.664 1.079 2.241 0.747 5.062z"></path>
<path fill="#a4acad" style="fill: var(--color2, #a4acad)" d="M19.141 4.673c-0.83 0-1.494 0.664-1.494 1.494s0.664 1.494 1.494 1.494c0.83 0 1.494-0.664 1.494-1.494s-0.664-1.494-1.494-1.494zM19.141 6.872c-0.373 0-0.664-0.29-0.664-0.664s0.29-0.664 0.664-0.664c0.373 0 0.664 0.29 0.664 0.664s-0.29 0.664-0.664 0.664z"></path>
<path fill="#a4acad" style="fill: var(--color2, #a4acad)" d="M17.191 8.117c-0.788 0-1.411 0.622-1.411 1.411s0.622 1.411 1.411 1.411c0.788 0 1.411-0.622 1.411-1.411s-0.622-1.411-1.411-1.411zM17.15 10.108c-0.332 0-0.581-0.249-0.581-0.581s0.249-0.581 0.581-0.581c0.332 0 0.581 0.249 0.581 0.581s-0.249 0.581-0.581 0.581z"></path>
<path fill="#a4acad" style="fill: var(--color2, #a4acad)" d="M24.577 8.075c-0.456-0.498-1.245-0.539-1.743-0.083-0.249 0.207-0.373 0.539-0.415 0.83 0 0.332 0.083 0.664 0.29 0.871 0.207 0.29 0.539 0.456 0.871 0.456 0.041 0 0.041 0 0.083 0 0.29 0 0.581-0.124 0.83-0.332 0.498-0.456 0.539-1.245 0.083-1.743zM23.871 9.278c-0.083 0.083-0.166 0.124-0.29 0.083-0.124 0-0.207-0.041-0.29-0.124s-0.124-0.166-0.083-0.29c0.041-0.124 0.083-0.249 0.166-0.29 0.083-0.083 0.166-0.083 0.249-0.083 0.124 0 0.207 0.041 0.29 0.124 0.166 0.166 0.124 0.415-0.041 0.581z"></path>
<path fill="#a4acad" style="fill: var(--color2, #a4acad)" d="M27.938 18.241c-0.29-0.29-0.622-0.498-0.996-0.539-0.788-0.083-1.535 0.498-1.618 1.286s0.498 1.535 1.286 1.618c0.041 0 0.124 0 0.166 0 0.747 0 1.369-0.539 1.452-1.286 0.041-0.373-0.083-0.788-0.29-1.079zM26.693 19.817c-0.373-0.041-0.622-0.373-0.581-0.705 0.041-0.373 0.373-0.622 0.705-0.581 0.166 0 0.332 0.124 0.415 0.249s0.166 0.29 0.166 0.456c-0.041 0.373-0.373 0.622-0.705 0.581z"></path>
<path fill="#a4acad" style="fill: var(--color2, #a4acad)" d="M28.311 14.506c-0.166-0.249-0.456-0.415-0.788-0.456s-0.664 0.041-0.913 0.249c-0.249 0.207-0.415 0.498-0.456 0.83s0.041 0.664 0.249 0.913c0.207 0.249 0.498 0.415 0.83 0.456 0.041 0 0.083 0 0.124 0 0.29 0 0.539-0.083 0.747-0.249 0.249-0.207 0.415-0.498 0.456-0.83s-0.041-0.664-0.249-0.913zM27.606 15.585c-0.083 0.083-0.207 0.083-0.29 0.083-0.124 0-0.207-0.083-0.249-0.166-0.083-0.083-0.083-0.207-0.083-0.29 0-0.124 0.083-0.207 0.166-0.249 0.083-0.083 0.207-0.083 0.29-0.083 0.124 0 0.207 0.083 0.249 0.166s0.083 0.207 0.083 0.29c0 0.083-0.083 0.207-0.166 0.249z"></path>
<path fill="#a4acad" style="fill: var(--color2, #a4acad)" d="M22.087 20.606c-0.249-0.332-0.539-0.539-0.913-0.581-0.373-0.083-0.747 0-1.079 0.249-0.622 0.456-0.788 1.328-0.332 1.992 0.249 0.373 0.705 0.581 1.162 0.581 0.29 0 0.581-0.083 0.83-0.249 0.332-0.207 0.539-0.539 0.581-0.913 0.083-0.373 0-0.747-0.249-1.079zM21.506 21.56c-0.041 0.166-0.124 0.29-0.249 0.373-0.249 0.207-0.622 0.124-0.83-0.166-0.166-0.249-0.124-0.622 0.166-0.83 0.249-0.166 0.622-0.124 0.83 0.166 0.083 0.124 0.124 0.29 0.083 0.456z"></path>
<path fill="#a4acad" style="fill: var(--color2, #a4acad)" d="M16.195 24.257c-0.332-0.083-0.664-0.041-0.913 0.166-0.29 0.166-0.456 0.456-0.539 0.747-0.207 0.664 0.207 1.328 0.871 1.494 0.083 0.041 0.207 0.041 0.29 0.041 0.539 0 1.079-0.373 1.203-0.954 0.166-0.664-0.249-1.328-0.913-1.494zM16.237 25.584c-0.041 0.207-0.249 0.332-0.498 0.29-0.124-0.041-0.207-0.083-0.249-0.166s0-0.207 0-0.332c0.041-0.124 0.083-0.207 0.166-0.249s0.124-0.041 0.207-0.041c0.041 0 0.083 0 0.083 0 0.207 0.041 0.332 0.249 0.29 0.498z"></path>
<path fill="#a4acad" style="fill: var(--color2, #a4acad)" d="M8.851 18.324c-0.373-0.705-1.286-0.996-1.992-0.581-0.705 0.373-0.996 1.286-0.581 1.992 0.249 0.498 0.788 0.788 1.286 0.788 0.249 0 0.456-0.041 0.705-0.166 0.705-0.415 0.954-1.328 0.581-2.033zM7.856 19.61c-0.332 0.166-0.705 0.041-0.871-0.249-0.166-0.332-0.042-0.705 0.249-0.871 0.332-0.166 0.705-0.041 0.871 0.249s0.041 0.705-0.249 0.871z"></path>
<path fill="#a4acad" style="fill: var(--color2, #a4acad)" d="M12.669 18.489c-0.166-0.332-0.498-0.581-0.83-0.705-0.373-0.124-0.747-0.083-1.079 0.124-0.332 0.166-0.581 0.498-0.705 0.83-0.124 0.373-0.083 0.747 0.124 1.079 0.166 0.373 0.456 0.622 0.83 0.705 0.124 0.041 0.29 0.041 0.415 0.041 0.249 0 0.456-0.041 0.664-0.166 0.332-0.166 0.581-0.498 0.705-0.83 0.124-0.373 0.083-0.747-0.124-1.079zM11.673 19.693c-0.124 0.083-0.29 0.083-0.456 0.041s-0.29-0.166-0.332-0.29c-0.041-0.124-0.083-0.29-0.041-0.456s0.166-0.29 0.29-0.332c0.124-0.083 0.29-0.083 0.456-0.041s0.29 0.166 0.332 0.29c0.166 0.29 0.041 0.664-0.249 0.788z"></path>
<path fill="#a4acad" style="fill: var(--color2, #a4acad)" d="M14.204 12.681l-6.68-8.63-1.037-1.328c-0.29-0.373-0.747-0.498-1.162-0.29-0.83 0.373-2.448 1.369-3.942 4.066s-1.452 4.647-1.328 5.56c0.083 0.456 0.415 0.788 0.871 0.83l1.66 0.124 10.788 1.162c0.083 0 0.124 0 0.124 0 0.332 0 0.622-0.166 0.788-0.456 0.166-0.332 0.166-0.705-0.083-1.037zM1.756 12.141l-0.705-0.083c-0.083 0-0.124-0.083-0.166-0.124-0.124-0.788-0.124-2.531 1.203-5.020 1.369-2.49 2.821-3.402 3.527-3.693 0.083-0.042 0.166 0 0.207 0.042l0.456 0.581c-0.788 0.373-2.116 1.286-3.361 3.527-1.245 2.282-1.286 3.9-1.162 4.771zM13.623 13.303c-0.041 0.041-0.041 0.041-0.083 0.041l-10.788-1.162c-0.083 0-0.124-0.041-0.124-0.083-0.083-0.581-0.166-2.116 1.079-4.357s2.572-2.987 3.070-3.236c0.042 0 0.083 0 0.124 0.042l6.722 8.63c0.041 0.041 0.041 0.083 0 0.124z"></path>
<path fill="#a4acad" style="fill: var(--color2, #a4acad)" d="M8.021 6.913c-0.124-0.373-0.373-0.705-0.705-0.871-0.332-0.207-0.747-0.249-1.12-0.124s-0.705 0.373-0.871 0.705c-0.207 0.332-0.249 0.747-0.124 1.12s0.373 0.705 0.705 0.913c0.207 0.124 0.456 0.166 0.705 0.166 0.539 0 1.037-0.29 1.286-0.788 0.207-0.332 0.249-0.747 0.124-1.12zM7.15 7.66c-0.166 0.332-0.581 0.415-0.871 0.249-0.166-0.083-0.249-0.207-0.29-0.373s0-0.332 0.083-0.498c0.083-0.166 0.207-0.249 0.373-0.29 0.042 0 0.124-0.042 0.166-0.042 0.124 0 0.207 0.042 0.29 0.083 0.166 0.083 0.249 0.207 0.29 0.373s0.042 0.332-0.042 0.498z"></path>
<path fill="#a4acad" style="fill: var(--color2, #a4acad)" d="M8.685 9.859c-0.581-0.415-1.328-0.207-1.66 0.415-0.166 0.29-0.207 0.622-0.083 0.954 0.083 0.332 0.29 0.581 0.581 0.747 0.166 0.083 0.373 0.166 0.581 0.166 0.124 0 0.249 0 0.332-0.041 0.332-0.083 0.581-0.29 0.747-0.581 0.332-0.581 0.124-1.328-0.498-1.66zM8.478 11.021c-0.124 0.207-0.332 0.249-0.539 0.166-0.083-0.041-0.166-0.124-0.207-0.249s0-0.207 0.042-0.29c0.041-0.083 0.124-0.166 0.249-0.207 0 0.041 0.041 0 0.083 0 0.083 0 0.124 0 0.207 0.041 0.207 0.124 0.249 0.332 0.166 0.539z"></path>
<path fill="#a4acad" style="fill: var(--color2, #a4acad)" d="M5.159 10.44l-0.498-1.037c-0.083-0.207-0.332-0.29-0.539-0.207s-0.29 0.332-0.207 0.539l0.498 1.037c0.083 0.166 0.207 0.249 0.373 0.249 0.042 0 0.124 0 0.166-0.041 0.207-0.083 0.29-0.332 0.207-0.539z"></path>
<path fill="#a4acad" style="fill: var(--color2, #a4acad)" d="M16.112 7.079l-0.498-1.037c-0.083-0.207-0.332-0.29-0.539-0.207s-0.29 0.332-0.207 0.539l0.498 1.037c0.083 0.166 0.207 0.249 0.373 0.249 0.041 0 0.124 0 0.166-0.042 0.207-0.083 0.332-0.332 0.207-0.539z"></path>
<path fill="#a4acad" style="fill: var(--color2, #a4acad)" d="M23.415 12.266l-0.498-1.037c-0.083-0.207-0.332-0.29-0.539-0.207s-0.29 0.332-0.207 0.539l0.498 1.037c0.083 0.166 0.207 0.249 0.373 0.249 0.041 0 0.124 0 0.166-0.041 0.207-0.083 0.29-0.332 0.207-0.539z"></path>
<path fill="#a4acad" style="fill: var(--color2, #a4acad)" d="M13.457 25.792l-0.498-1.037c-0.083-0.207-0.332-0.29-0.539-0.207s-0.29 0.332-0.207 0.539l0.498 1.037c0.083 0.166 0.207 0.249 0.373 0.249 0.041 0 0.124 0 0.166-0.041 0.207-0.083 0.29-0.332 0.207-0.539z"></path>
<path fill="#a4acad" style="fill: var(--color2, #a4acad)" d="M21.963 24.879l-1.162-0.207c-0.207-0.041-0.456 0.124-0.498 0.332s0.124 0.456 0.332 0.498l1.162 0.207c0.041 0 0.041 0 0.083 0 0.207 0 0.373-0.124 0.415-0.332 0.083-0.249-0.083-0.456-0.332-0.498z"></path>
<path fill="#a4acad" style="fill: var(--color2, #a4acad)" d="M23.871 17.12l-1.162-0.207c-0.207-0.041-0.456 0.124-0.498 0.332s0.124 0.456 0.332 0.498l1.162 0.207c0.041 0 0.041 0 0.083 0 0.207 0 0.373-0.124 0.415-0.332s-0.124-0.456-0.332-0.498z"></path>
<path fill="#a4acad" style="fill: var(--color2, #a4acad)" d="M26.734 10.648l-1.162-0.207c-0.207-0.041-0.456 0.124-0.498 0.332-0.041 0.249 0.124 0.456 0.332 0.498l1.162 0.207c0.041 0 0.041 0 0.083 0 0.207 0 0.373-0.124 0.415-0.332s-0.124-0.456-0.332-0.498z"></path>
<path fill="#a4acad" style="fill: var(--color2, #a4acad)" d="M16.112 22.182l-0.498-1.037c-0.083-0.207-0.332-0.29-0.539-0.207s-0.29 0.332-0.207 0.539l0.498 1.037c0.083 0.166 0.207 0.249 0.373 0.249 0.041 0 0.124 0 0.166-0.041 0.207-0.083 0.29-0.332 0.207-0.539z"></path>
<path fill="#a4acad" style="fill: var(--color2, #a4acad)" d="M9.681 21.643c-0.124-0.166-0.415-0.207-0.581-0.041l-0.913 0.747c-0.166 0.124-0.207 0.415-0.041 0.581 0.083 0.083 0.207 0.166 0.332 0.166 0.083 0 0.166-0.041 0.249-0.083l0.913-0.747c0.166-0.166 0.207-0.415 0.041-0.622z"></path>
<path fill="#a4acad" style="fill: var(--color2, #a4acad)" d="M21.133 12.888c-0.124-0.166-0.415-0.207-0.581-0.041l-0.913 0.705c-0.166 0.166-0.207 0.415-0.041 0.581 0.083 0.083 0.207 0.166 0.332 0.166 0.083 0 0.166-0.041 0.249-0.083l0.913-0.747c0.166-0.124 0.207-0.415 0.041-0.581z"></path>
<path fill="#a4acad" style="fill: var(--color2, #a4acad)" d="M24.826 22.888c-0.124-0.166-0.415-0.207-0.581-0.041l-0.913 0.747c-0.166 0.124-0.207 0.415-0.041 0.581 0.083 0.083 0.207 0.124 0.332 0.124 0.083 0 0.166-0.041 0.249-0.083l0.913-0.747c0.166-0.124 0.207-0.415 0.041-0.581z"></path>
</symbol>
<symbol id="icon-plus" viewBox="0 0 32 32">
<title>icon-plus</title>
<path fill="#f46d40" style="fill: var(--color6, #f46d40)" d="M16 32c-8.837 0-16-7.163-16-16s7.163-16 16-16c8.837 0 16 7.163 16 16s-7.163 16-16 16z"></path>
<path fill="none" stroke="#f2f2f2" style="stroke: var(--color5, #f2f2f2)" stroke-linejoin="miter" stroke-linecap="round" stroke-miterlimit="4" stroke-width="1.6" d="M16 7.2v16.8"></path>
<path fill="none" stroke="#f2f2f2" style="stroke: var(--color5, #f2f2f2)" stroke-linejoin="miter" stroke-linecap="round" stroke-miterlimit="4" stroke-width="1.6" d="M8 15.2h16.8"></path>
</symbol>
<symbol id="icon-minus" viewBox="0 0 32 32">
<title>icon-plus</title>
<path fill="#f46d40" style="fill: var(--color6, #f46d40)" d="M16 32c-8.837 0-16-7.163-16-16s7.163-16 16-16c8.837 0 16 7.163 16 16s-7.163 16-16 16z"></path>
<path fill="none" stroke="#f2f2f2" style="stroke: var(--color5, #f2f2f2)" stroke-linejoin="miter" stroke-linecap="round" stroke-miterlimit="4" stroke-width="1.6" d="M8 15.2h16.8"></path>
</symbol>
<symbol id="icon-review" viewBox="0 0 32 32">
<title>icon-review</title>
<path fill="#ff9846" style="fill: var(--color1, #ff9846)" d="M12.637 10.26l-0.204 0.084c-0.344-0.601-0.991-1.007-1.731-1.007h-3.164c-1.099 0-1.994 0.895-1.994 1.994v8.998c0 1.099 0.894 1.994 1.994 1.994h3.164c0.626 0 1.186-0.291 1.552-0.744 1.101 0.488 2.303 0.744 3.508 0.744h6.685c1.121 0 2.033-0.912 2.033-2.033 0-0.351-0.089-0.681-0.246-0.969 0.699-0.322 1.185-1.029 1.185-1.847 0-0.336-0.083-0.654-0.228-0.933 0.743-0.303 1.267-1.033 1.267-1.883s-0.525-1.58-1.267-1.883c0.145-0.28 0.228-0.597 0.228-0.934 0-1.121-0.912-2.033-2.033-2.033h-3.331c-0.315 0-0.571-0.256-0.571-0.571v-1.839c0-1.833-1.491-3.324-3.324-3.324-0.804 0-1.458 0.654-1.458 1.458v1.647c-0 1.356-0.81 2.566-2.064 3.083zM10.701 21.073h-3.164c-0.41 0-0.744-0.334-0.744-0.744v-8.998c0-0.41 0.334-0.744 0.744-0.744h3.164c0.41 0 0.744 0.334 0.744 0.744v8.998c0 0.41-0.334 0.744-0.744 0.744zM15.95 7.177v-1.647c0-0.114 0.093-0.208 0.208-0.208 1.144 0 2.074 0.931 2.074 2.074v1.839c0 1.004 0.817 1.821 1.821 1.821h3.331c0.432 0 0.783 0.351 0.783 0.783s-0.351 0.783-0.783 0.783h-3.901c-0.345 0-0.625 0.28-0.625 0.625s0.28 0.625 0.625 0.625h4.94c0.432 0 0.783 0.351 0.783 0.783s-0.351 0.783-0.783 0.783h-4.94c-0.345 0-0.625 0.28-0.625 0.625s0.28 0.625 0.625 0.625h3.901c0.432 0 0.783 0.351 0.783 0.783s-0.351 0.783-0.783 0.783h-3.901c-0.345 0-0.625 0.28-0.625 0.625s0.28 0.625 0.625 0.625h2.962c0.432 0 0.783 0.351 0.783 0.783s-0.351 0.783-0.783 0.783h-6.685c-1.055 0-2.108-0.23-3.068-0.667 0.001-0.026 0.002-0.051 0.002-0.077v-8.741l0.418-0.172c1.724-0.71 2.838-2.374 2.838-4.238z"></path>
<path fill="#ff9846" style="fill: var(--color1, #ff9846)" d="M26.375 1.25h-7.563c-0.345 0-0.625 0.28-0.625 0.625s0.28 0.625 0.625 0.625h7.563c2.412 0 4.375 1.963 4.375 4.375v14.5c0 2.412-1.963 4.375-4.375 4.375h-8.21c-0.223 0-0.43 0.119-0.541 0.313l-1.624 2.813-1.624-2.813c-0.112-0.193-0.318-0.313-0.541-0.313h-8.21c-2.412 0-4.375-1.963-4.375-4.375v-14.5c0-2.412 1.963-4.375 4.375-4.375h7.562c0.345 0 0.625-0.28 0.625-0.625s-0.28-0.625-0.625-0.625h-7.562c-3.102 0-5.625 2.523-5.625 5.625v14.5c0 3.102 2.523 5.625 5.625 5.625h7.849l1.985 3.438c0.112 0.193 0.318 0.313 0.541 0.313s0.43-0.119 0.541-0.313l1.985-3.438h7.849c3.102 0 5.625-2.523 5.625-5.625v-14.5c0-3.102-2.523-5.625-5.625-5.625z"></path>
<path fill="#ff9846" style="fill: var(--color1, #ff9846)" d="M16 2.5c0.164 0 0.325-0.067 0.442-0.183s0.183-0.277 0.183-0.442-0.067-0.326-0.183-0.442c-0.116-0.116-0.277-0.183-0.442-0.183s-0.326 0.067-0.442 0.183c-0.116 0.116-0.183 0.278-0.183 0.442s0.067 0.326 0.183 0.442c0.116 0.116 0.277 0.183 0.442 0.183z"></path>
</symbol>

<symbol id="icon-arrow-down" viewBox="0 0 59 32">
<title>icon-arrow-down</title>
<path fill="none" stroke="#f46d40" style="stroke: var(--color1, #f46d40)" stroke-linejoin="miter" stroke-linecap="round" stroke-miterlimit="4" stroke-width="2.6667" d="M56 2.667l-26.667 26.667-26.667-26.667"></path>
</symbol>

<symbol id="icon-select-menu" viewBox="0 0 33 32">
<title>icon-select-menu</title>
<path fill="none" stroke="#ff9846" style="stroke: var(--color2, #ff9846)" stroke-linejoin="miter" stroke-linecap="round" stroke-miterlimit="4" stroke-width="4.1739" d="M2.087 2.087h29.217"></path>
<path fill="none" stroke="#ff9846" style="stroke: var(--color2, #ff9846)" stroke-linejoin="miter" stroke-linecap="round" stroke-miterlimit="4" stroke-width="4.1739" d="M2.087 16h20.87"></path>
<path fill="none" stroke="#ff9846" style="stroke: var(--color2, #ff9846)" stroke-linejoin="miter" stroke-linecap="round" stroke-miterlimit="4" stroke-width="4.1739" d="M2.087 29.913h29.217"></path>
</symbol>

<symbol id="icon-right-arrow" viewBox="0 0 32 32">
<title>icon-right-arrow</title>
<path d="M16 32c-8.837 0-16-7.163-16-16s7.163-16 16-16c8.837 0 16 7.163 16 16s-7.163 16-16 16z"></path>
<path fill="none" stroke="#f2f2f2" style="stroke: var(--color5, #f2f2f2)" stroke-linejoin="miter" stroke-linecap="round" stroke-miterlimit="4" stroke-width="0.5333" d="M12.267 8l6.933 7.2-6.933 7.2"></path>
</symbol>
<symbol id="icon-left-arrow" viewBox="0 0 32 32">
<title>icon-left-arrow</title>
<path d="M16 32c-8.837 0-16-7.163-16-16s7.163-16 16-16c8.837 0 16 7.163 16 16s-7.163 16-16 16z"></path>
<path fill="none" stroke="#f2f2f2" style="stroke: var(--color1, #f2f2f2)" stroke-linejoin="miter" stroke-linecap="round" stroke-miterlimit="4" stroke-width="0.5333" d="M12.267 8l6.933 7.2-6.933 7.2"></path>
</symbol>
<symbol id="icon-rolls" viewBox="0 0 32 32">
<title>icon-rolls</title>
<path fill="#a4acad" style="fill: var(--color2, #a4acad)" d="M16 9.825c1.395 0 2.838-0.247 3.853-0.72 0.083-0.012 0.164-0.049 0.228-0.113 0.698-0.375 1.143-0.872 1.143-1.484 0-1.505-2.691-2.317-5.223-2.317s-5.223 0.812-5.223 2.317c0 1.505 2.691 2.317 5.223 2.317zM15.398 8.995c-0.015-0.024-0.033-0.047-0.054-0.068l-2.452-2.452c0.344-0.125 0.752-0.234 1.217-0.315l2.815 2.815c-0.293 0.023-0.601 0.035-0.924 0.035-0.207-0-0.407-0.006-0.602-0.015zM20.409 7.507c0 0.213-0.194 0.454-0.555 0.68l-2.041-2.042c1.642 0.273 2.597 0.888 2.597 1.361zM16.53 6.016l2.538 2.538c-0.323 0.114-0.7 0.214-1.125 0.291-0.002-0.003-0.004-0.006-0.007-0.008l-2.802-2.802c0.275-0.020 0.563-0.031 0.865-0.031 0.182-0 0.358 0.004 0.53 0.011zM12.113 6.848l2.009 2.009c-1.602-0.279-2.531-0.883-2.531-1.35 0-0.206 0.182-0.439 0.522-0.659z"></path>
<path fill="#a4acad" style="fill: var(--color2, #a4acad)" d="M8.175 16.609c2.532 0 5.223-0.812 5.223-2.317s-2.691-2.317-5.223-2.317c-2.532 0-5.223 0.812-5.223 2.317s2.691 2.317 5.223 2.317zM5.334 15.413l1.633-1.319 1.691 1.691c-0.157 0.006-0.318 0.009-0.482 0.009-1.149 0-2.111-0.155-2.841-0.382zM12.584 14.292c0 0.499-1.061 1.154-2.867 1.402l-0.721-0.721 2.080-1.783c0.967 0.311 1.508 0.747 1.508 1.103zM10.103 12.951l-1.685 1.444-1.536-1.536c0.399-0.045 0.83-0.070 1.293-0.070 0.72 0 1.366 0.061 1.928 0.162zM5.894 13.022l0.494 0.494-1.9 1.534 0.026 0.032c-0.485-0.256-0.748-0.543-0.748-0.79 0-0.426 0.775-0.967 2.128-1.27z"></path>
<path fill="#a4acad" style="fill: var(--color2, #a4acad)" d="M24.208 9.989v-2.481c0-0.001-0-0.002-0-0.003-0.003-2.414-3.607-4.304-8.208-4.304-4.602 0-8.208 1.892-8.208 4.307 0 0 0 0 0 0v2.481c-4.418 0.101-7.825 1.955-7.825 4.303v10.201c0 2.415 3.605 4.307 8.208 4.307 3.716 0 6.782-1.234 7.825-2.98 1.043 1.746 4.109 2.98 7.825 2.98 4.602 0 8.208-1.892 8.208-4.307v-10.201c0-2.348-3.407-4.201-7.824-4.303zM31.218 14.292c0 1.894-3.386 3.493-7.393 3.493s-7.394-1.6-7.394-3.493c0-1.894 3.386-3.493 7.393-3.493s7.394 1.6 7.394 3.493zM22.704 10.023c0.261-0.193 0.492-0.399 0.689-0.615v0.582c-0.233 0.006-0.463 0.017-0.689 0.033zM16 12.965c-0.257-0.431-0.637-0.831-1.12-1.188 0.366 0.025 0.74 0.038 1.12 0.038s0.755-0.013 1.12-0.038c-0.483 0.358-0.863 0.757-1.12 1.188zM16 4.014c4.008 0 7.394 1.6 7.394 3.493s-3.386 3.493-7.394 3.493c-4.008 0-7.393-1.6-7.393-3.493s3.386-3.493 7.393-3.493zM9.296 10.023c-0.227-0.016-0.456-0.027-0.689-0.033v-0.582c0.198 0.216 0.428 0.421 0.689 0.614zM8.175 10.799c4.008 0 7.394 1.6 7.394 3.493s-3.386 3.493-7.394 3.493c-4.008 0-7.394-1.6-7.394-3.493s3.386-3.493 7.394-3.493zM8.175 27.986c-4.008 0-7.394-1.6-7.394-3.493v-8.3c1.316 1.437 4.099 2.406 7.394 2.406s6.078-0.969 7.394-2.406v8.3c0 1.894-3.386 3.493-7.394 3.493zM31.218 24.493c0 1.894-3.386 3.493-7.393 3.493s-7.394-1.6-7.394-3.493v-8.3c1.316 1.437 4.099 2.406 7.393 2.406s6.077-0.969 7.393-2.406v8.3h0z"></path>
<path fill="#a4acad" style="fill: var(--color2, #a4acad)" d="M18.601 14.292c0 1.505 2.691 2.317 5.223 2.317s5.223-0.812 5.223-2.317c0-1.505-2.691-2.317-5.223-2.317s-5.223 0.812-5.223 2.317zM28.234 14.292c0 0.628-1.677 1.503-4.409 1.503s-4.409-0.875-4.409-1.503c0-0.628 1.677-1.503 4.409-1.503s4.409 0.876 4.409 1.503z"></path>
<path fill="#a4acad" style="fill: var(--color2, #a4acad)" d="M21.060 14.296c0 0.817 1.732 0.939 2.765 0.939s2.765-0.122 2.765-0.939c0-0.817-1.732-0.939-2.765-0.939s-2.765 0.122-2.765 0.939zM23.825 14.421c-0.631 0-1.131-0.056-1.477-0.124 0.346-0.068 0.846-0.124 1.477-0.124s1.131 0.056 1.477 0.124c-0.346 0.068-0.846 0.124-1.477 0.124z"></path>
</symbol>
<symbol id="icon-salad" viewBox="0 0 32 32">
<title>icon-salad</title>
<path fill="#a4acad" style="fill: var(--color2, #a4acad)" d="M30.576 9.636c-1.468-0.916-2.899-1.062-4.159-0.428-0.328-0.325-0.997-0.859-1.906-0.925-0.811-0.059-1.611 0.263-2.38 0.957-0.076-0.676-0.388-1.304-0.882-1.771-0.586-0.545-1.359-0.844-2.16-0.835-1.462 0-2.727 1.101-3.032 2.521l-3.567-2.296c-0.077-0.050-0.164-0.083-0.255-0.098s-0.183-0.011-0.273 0.012c-0.090 0.023-0.175 0.065-0.249 0.122s-0.135 0.129-0.179 0.211c-0.044 0.080-0.085 0.162-0.124 0.245-1.148-0.423-2.587-0.123-3.441 0.766-0.358 0.367-0.615 0.821-0.745 1.317s-0.131 1.017-0 1.514h-0.216c-0.554-2.003-2.584-3.057-2.67-3.101-0.082-0.042-0.177-0.053-0.267-0.030s-0.168 0.077-0.221 0.152c-0.053 0.076-0.076 0.168-0.066 0.26s0.053 0.177 0.121 0.24c0.032 0.052 0.277 0.528-0.279 2.155-1.391-0.777-2.851-1.027-3.144-1.071-0.035-0.007-0.070-0.010-0.105-0.010-0.096 0.002-0.189 0.040-0.258 0.107s-0.111 0.157-0.117 0.254c-0.006 0.096 0.025 0.191 0.087 0.266s0.149 0.123 0.244 0.136c0.002 0 0.024 0.003 0.061 0.009 0.023 0.032 0.132 0.182 0.139 0.192 0.21 0.297 0.504 0.953 0.708 2.392 0.156 1.1 0.786 2.030 1.474 2.629-0.503 0.11-0.867 0.413-0.916 0.802-0.025 0.2-0.038 0.402-0.038 0.604 0 2.191 1.458 4.235 4.106 5.755 1.261 0.724 2.724 1.288 4.313 1.677v1.39c0 0.101 0.040 0.199 0.112 0.27s0.169 0.112 0.27 0.112h9.887c0.101 0 0.199-0.040 0.27-0.112s0.112-0.169 0.112-0.27v-1.39c1.59-0.389 3.052-0.953 4.313-1.677 2.648-1.52 4.106-3.564 4.106-5.755-0-0.202-0.013-0.404-0.038-0.604-0.015-0.112-0.056-0.219-0.119-0.313 1.236-0.453 2.128-1.499 2.602-2.484 0.327-0.673 0.393-1.443 0.187-2.162s-0.672-1.336-1.306-1.733zM19.089 7.399c1.166 0 2.077 0.75 2.263 1.801-0.218-0.004-0.462 0.001-0.722 0.021-0.149-0.342-0.412-0.622-0.743-0.792s-0.712-0.221-1.077-0.143c-0.365 0.078-0.691 0.28-0.924 0.571s-0.358 0.654-0.354 1.027c-0 0.076 0.004 0.152 0.013 0.228l-0.783-0.504c0.104-1.217 1.128-2.21 2.328-2.21zM19.806 9.335c-0.533 0.103-1.044 0.298-1.509 0.577 0-0.009-0.001-0.018-0.001-0.028-0.005-0.178 0.047-0.352 0.146-0.499s0.244-0.259 0.411-0.319c0.167-0.061 0.349-0.067 0.52-0.019s0.322 0.149 0.433 0.289zM12.162 7.557l5.122 3.297c-0.139 0.195-0.257 0.404-0.353 0.624l-3.423-2.205c-0.081-0.052-0.172-0.085-0.268-0.095s-0.192 0.002-0.282 0.036c-0.091 0.034-0.172 0.089-0.238 0.16s-0.114 0.157-0.142 0.25c-0.228 0.781-0.022 1.781 0.564 2.742 0.549 0.899 1.402 1.716 2.429 2.333-0.203 0.244-0.396 0.479-0.484 0.784h-0.17c-1.353-0.979-2.38-2.33-2.898-3.821-0.513-1.479-0.462-2.932 0.142-4.104zM16.127 13.638c0.037 0.024 0.077 0.042 0.119 0.056-0.063 0.134-0.135 0.263-0.213 0.389-1.981-1.16-2.94-2.916-2.763-4.053l3.416 2.201c-0.010 0.046-0.020 0.093-0.029 0.14-0.023 0.123-0.048 0.24-0.075 0.35-0.11-0.041-0.231-0.042-0.343-0.004s-0.206 0.113-0.269 0.213c-0.072 0.115-0.096 0.254-0.067 0.387s0.11 0.248 0.224 0.322v-0zM11.633 12.724c0.502 1.046 1.206 1.983 2.070 2.758h-2.070v-2.758zM8.521 8.647c0.638-0.664 1.75-0.895 2.614-0.582-0.057 0.19-0.104 0.383-0.139 0.577-0.21-0.070-0.43-0.106-0.651-0.105-0.506 0.003-0.991 0.207-1.347 0.566s-0.556 0.846-0.554 1.352c0.001 0.166 0.023 0.332 0.066 0.492h-0.484c-0.146-0.391-0.177-0.815-0.089-1.223s0.291-0.782 0.584-1.078zM11.034 10.948h-1.716c-0.070-0.155-0.107-0.322-0.109-0.492-0.002-0.304 0.117-0.595 0.33-0.812s0.503-0.339 0.807-0.342c0.196-0.002 0.389 0.043 0.564 0.132-0.019 0.508 0.023 1.016 0.125 1.514v-0zM7.137 11.712h3.731v3.769h-4.569c0.040-0.319 0.050-0.642 0.031-0.963 0.595-0.958 0.865-1.898 0.806-2.806v-0zM4.748 9.036c0.561 0.444 1.27 1.17 1.53 2.14 0.182 0.681 0.118 1.401-0.188 2.148-0.134-0.377-0.321-0.733-0.554-1.058-0.345-0.473-0.766-0.886-1.246-1.223 0.286-0.8 0.44-1.473 0.459-2.007zM1.997 12.79c-0.135-0.948-0.325-1.698-0.569-2.239 1.053 0.303 2.61 0.935 3.485 2.16 0.557 0.78 0.762 1.711 0.614 2.771h-0.264c-0.466-2.56-1.916-3.285-1.981-3.316-0.045-0.022-0.095-0.035-0.145-0.038s-0.101 0.004-0.148 0.021c-0.048 0.017-0.091 0.042-0.129 0.076s-0.068 0.074-0.090 0.12c-0.022 0.045-0.034 0.095-0.037 0.145s0.005 0.101 0.021 0.148 0.043 0.091 0.077 0.129c0.034 0.037 0.075 0.068 0.12 0.089 0.012 0.006 1.116 0.559 1.534 2.627h-0.312c-0.633-0.071-1.959-1.161-2.177-2.692l-0 0zM20.066 25.372h-9.122v-0.836c3.011 0.599 6.111 0.599 9.122 0v0.836zM28.461 17.373h-19.152c-0.101 0-0.199 0.040-0.27 0.112s-0.112 0.169-0.112 0.27c0 0.101 0.040 0.199 0.112 0.27s0.169 0.112 0.27 0.112h18.998c-0.436 1.454-1.655 2.803-3.542 3.886-2.467 1.416-5.755 2.196-9.258 2.196s-6.792-0.78-9.258-2.196c-1.887-1.083-3.107-2.433-3.542-3.886h3.927c0.101 0 0.199-0.040 0.27-0.112s0.112-0.169 0.112-0.27c0-0.101-0.040-0.199-0.112-0.27s-0.169-0.112-0.27-0.112h-4.082c-0.035-0.313-0.033-0.629 0.006-0.942 0.031-0.055 0.239-0.185 0.58-0.185h24.738c0.341 0 0.549 0.129 0.58 0.185 0.021 0.166 0.031 0.334 0.031 0.501-0 0.147-0.009 0.294-0.025 0.441zM17.201 15.482c0.607-0.231 1.29-0.443 2.013-0.637 0.013 0.013 0.026 0.025 0.039 0.037 0.277 0.23 0.577 0.431 0.894 0.6h-2.946zM31.006 13.2c-0.518 1.078-1.615 2.242-3.139 2.282h-5.808c-0.666-0.213-1.302-0.508-1.896-0.877 1.238-0.294 2.543-0.54 3.752-0.738 0.017 0.022 0.035 0.043 0.055 0.064 0.481 0.502 1.439 1.328 2.529 1.328 0.032 0 0.064-0.001 0.097-0.002 0.051-0.002 0.1-0.013 0.146-0.034s0.087-0.051 0.122-0.088 0.061-0.081 0.078-0.128c0.017-0.048 0.025-0.098 0.023-0.149s-0.015-0.1-0.036-0.146-0.052-0.087-0.090-0.121c-0.037-0.034-0.081-0.060-0.129-0.077s-0.098-0.024-0.149-0.021c-0.646 0.028-1.287-0.409-1.706-0.773 2.191-0.331 3.873-0.492 3.913-0.496 0.101-0.009 0.194-0.059 0.259-0.137s0.096-0.179 0.086-0.28c-0.009-0.101-0.059-0.194-0.137-0.259s-0.179-0.096-0.28-0.086c-0.165 0.015-1.852 0.177-4.024 0.506 0.288-0.523 0.859-1.254 1.845-1.417 0.1-0.017 0.188-0.073 0.247-0.155s0.082-0.184 0.066-0.284-0.072-0.189-0.154-0.248c-0.082-0.059-0.184-0.083-0.284-0.067-1.612 0.266-2.35 1.641-2.593 2.22-0.013 0.031-0.024 0.062-0.033 0.094-1.263 0.208-2.631 0.467-3.931 0.783 0.214-0.61 0.684-1.536 1.622-1.854 0.048-0.016 0.092-0.041 0.131-0.074s0.070-0.073 0.092-0.118c0.023-0.045 0.036-0.094 0.039-0.145s-0.003-0.101-0.019-0.149c-0.016-0.048-0.042-0.092-0.075-0.13s-0.074-0.069-0.119-0.091c-0.045-0.022-0.095-0.035-0.145-0.038s-0.101 0.004-0.149 0.021c-1.484 0.503-2.045 2.066-2.218 2.714-0.007 0.028-0.013 0.056-0.018 0.085-0.992 0.269-1.917 0.573-2.69 0.915 0.372-0.458 0.86-1.153 1.12-2.517 0.249-1.31 1.105-2.127 2.544-2.428 0.735-0.141 1.488-0.159 2.228-0.054 0.060 0.010 0.121 0.007 0.178-0.011s0.11-0.049 0.154-0.091c0.65-0.631 1.301-0.928 1.936-0.885 0.943 0.065 1.58 0.869 1.585 0.877 0.057 0.075 0.14 0.126 0.233 0.143s0.188-0 0.269-0.049c1.078-0.654 2.301-0.563 3.635 0.27 0.474 0.297 0.822 0.759 0.976 1.297s0.104 1.114-0.141 1.617l-0 0z"></path>
<path fill="#a4acad" style="fill: var(--color2, #a4acad)" d="M15.249 11.581c-0.057-0.037-0.121-0.062-0.188-0.074s-0.135-0.011-0.202 0.004c-0.066 0.015-0.129 0.042-0.184 0.082s-0.103 0.089-0.139 0.146c-0.072 0.115-0.096 0.254-0.067 0.387s0.11 0.248 0.223 0.322c0.082 0.053 0.179 0.082 0.277 0.082 0.038 0 0.075-0.004 0.112-0.012 0.066-0.014 0.129-0.042 0.185-0.081s0.103-0.089 0.139-0.147c0.072-0.115 0.096-0.254 0.067-0.387s-0.11-0.248-0.223-0.322z"></path>
<path fill="#a4acad" style="fill: var(--color2, #a4acad)" d="M8.265 21.32c-0.046 0.090-0.054 0.195-0.022 0.292s0.1 0.176 0.191 0.222c1.421 0.718 2.985 1.109 4.577 1.143h0.010c0.101 0.001 0.199-0.038 0.272-0.109s0.114-0.168 0.115-0.269c0.001-0.101-0.038-0.199-0.109-0.272s-0.168-0.114-0.269-0.115c-1.478-0.031-2.931-0.394-4.251-1.061-0.045-0.023-0.094-0.036-0.144-0.040s-0.1 0.002-0.148 0.018-0.092 0.041-0.13 0.073c-0.038 0.033-0.069 0.073-0.092 0.118z"></path>
<path fill="#a4acad" style="fill: var(--color2, #a4acad)" d="M7.427 20.329c-0.123-0.088-0.247-0.181-0.367-0.275-0.080-0.063-0.181-0.091-0.282-0.079s-0.192 0.064-0.255 0.144c-0.063 0.080-0.091 0.181-0.079 0.282s0.064 0.192 0.144 0.255c0.129 0.101 0.261 0.2 0.393 0.294 0.041 0.030 0.087 0.051 0.136 0.063s0.1 0.014 0.15 0.006 0.098-0.026 0.141-0.052c0.043-0.027 0.080-0.061 0.11-0.102s0.050-0.088 0.062-0.137 0.013-0.1 0.004-0.15c-0.008-0.050-0.027-0.097-0.054-0.14s-0.062-0.080-0.103-0.109h0z"></path>
</symbol>
<symbol id="icon-sales" viewBox="0 0 32 32">
<title>icon-sales</title>
<path fill="#a4acad" style="fill: var(--color2, #a4acad)" d="M26.653 12.95c-0.099-0.202-0.099-0.434 0-0.637l0.917-1.875c0.51-1.044 0.106-2.288-0.92-2.833l-1.844-0.978c-0.199-0.106-0.335-0.293-0.374-0.515l-0.36-2.056c-0.201-1.144-1.259-1.914-2.41-1.751l-2.066 0.292c-0.223 0.031-0.444-0.040-0.605-0.197l-1.5-1.451c-0.835-0.808-2.143-0.808-2.979 0l-1.5 1.451c-0.162 0.157-0.382 0.228-0.605 0.197l-2.066-0.292c-1.151-0.163-2.209 0.606-2.41 1.751l-0.361 2.055c-0.039 0.222-0.175 0.409-0.374 0.515l-1.843 0.978c-1.026 0.545-1.431 1.789-0.92 2.833l0.916 1.875c0.099 0.202 0.099 0.434 0 0.637l-0.917 1.875c-0.51 1.044-0.106 2.288 0.92 2.833l1.843 0.978c0.199 0.106 0.335 0.293 0.374 0.515l0.361 2.056c0.183 1.042 1.076 1.772 2.103 1.772 0.101 0 0.204-0.007 0.307-0.022l2.066-0.292c0.223-0.032 0.444 0.040 0.605 0.197l1.5 1.451c0.418 0.404 0.953 0.606 1.489 0.606s1.072-0.202 1.489-0.606l1.5-1.451c0.162-0.157 0.382-0.228 0.605-0.197l2.066 0.292c1.151 0.163 2.209-0.606 2.41-1.751l0.361-2.055c0.039-0.222 0.175-0.409 0.374-0.515l1.844-0.978c1.026-0.544 1.431-1.789 0.92-2.833l-0.917-1.875zM25.984 16.405l-1.843 0.978c-0.588 0.312-0.991 0.867-1.106 1.522l-0.36 2.055c-0.068 0.387-0.426 0.647-0.815 0.592l-2.066-0.292c-0.659-0.093-1.311 0.119-1.789 0.581l-1.5 1.451c-0.283 0.273-0.725 0.273-1.008 0l-1.5-1.451c-0.404-0.391-0.933-0.603-1.484-0.603-0.101 0-0.203 0.007-0.305 0.022l-2.066 0.292c-0.389 0.055-0.747-0.205-0.815-0.592l-0.361-2.055c-0.115-0.655-0.518-1.21-1.106-1.522l-1.843-0.978c-0.347-0.184-0.484-0.605-0.311-0.958l0.917-1.875c0.292-0.598 0.292-1.283 0-1.881l-0.917-1.875c-0.173-0.353-0.036-0.774 0.311-0.958l1.843-0.978c0.588-0.312 0.991-0.867 1.106-1.522l0.361-2.056c0.068-0.387 0.426-0.647 0.815-0.592l2.066 0.292c0.659 0.093 1.311-0.119 1.789-0.581l1.5-1.451c0.283-0.273 0.725-0.273 1.008 0l1.5 1.451c0.478 0.463 1.13 0.675 1.789 0.581l2.066-0.292c0.389-0.055 0.747 0.205 0.815 0.592l0.361 2.056c0.115 0.655 0.518 1.21 1.106 1.522l1.843 0.978c0.347 0.184 0.484 0.605 0.311 0.958l-0.917 1.875c-0.292 0.598-0.292 1.283 0 1.881l0.917 1.875c0.173 0.353 0.036 0.774-0.311 0.958z"></path>
<path fill="#a4acad" style="fill: var(--color2, #a4acad)" d="M21.178 7.454c-0.277-0.277-0.725-0.277-1.002 0l-9.354 9.354c-0.277 0.277-0.277 0.725 0 1.002 0.138 0.138 0.32 0.208 0.501 0.208s0.363-0.069 0.501-0.208l9.354-9.354c0.277-0.277 0.277-0.725 0-1.002z"></path>
<path fill="#a4acad" style="fill: var(--color2, #a4acad)" d="M13.165 6.254c-1.433 0-2.598 1.166-2.598 2.598s1.166 2.598 2.598 2.598c1.433 0 2.598-1.166 2.598-2.598s-1.166-2.598-2.598-2.598zM13.165 10.033c-0.651 0-1.181-0.53-1.181-1.181s0.53-1.181 1.181-1.181 1.181 0.53 1.181 1.181c-0 0.651-0.53 1.181-1.181 1.181z"></path>
<path fill="#a4acad" style="fill: var(--color2, #a4acad)" d="M18.835 13.813c-1.433 0-2.598 1.166-2.598 2.598s1.166 2.598 2.598 2.598c1.433 0 2.598-1.166 2.598-2.598s-1.166-2.598-2.598-2.598zM18.835 17.592c-0.651 0-1.181-0.53-1.181-1.181s0.53-1.181 1.181-1.181c0.651 0 1.181 0.53 1.181 1.181s-0.53 1.181-1.181 1.181z"></path>
</symbol>
<symbol id="icon-sets" viewBox="0 0 32 32">
<title>icon-sets</title>
<path fill="none" stroke="#a4acad" style="stroke: var(--color2, #a4acad)" stroke-linejoin="miter" stroke-linecap="butt" stroke-miterlimit="4" stroke-width="1.1034" d="M17.067 23.467c0 4.408-3.573 7.982-7.982 7.982s-7.982-3.573-7.982-7.982c0-4.408 3.574-7.982 7.982-7.982s7.982 3.574 7.982 7.982z"></path>
<path fill="#a4acad" style="fill: var(--color2, #a4acad)" d="M11.218 23.467c0 1.178-0.955 2.133-2.133 2.133s-2.133-0.955-2.133-2.133c0-1.178 0.955-2.133 2.133-2.133s2.133 0.955 2.133 2.133z"></path>
<path fill="none" stroke="#a4acad" style="stroke: var(--color2, #a4acad)" stroke-linejoin="miter" stroke-linecap="butt" stroke-miterlimit="4" stroke-width="1.1034" d="M29.867 8.533c0 4.408-3.573 7.982-7.982 7.982s-7.982-3.573-7.982-7.982c0-4.408 3.574-7.982 7.982-7.982s7.982 3.574 7.982 7.982z"></path>
<path fill="#a4acad" style="fill: var(--color2, #a4acad)" d="M24.018 8.533c0 1.178-0.955 2.133-2.133 2.133s-2.133-0.955-2.133-2.133c0-1.178 0.955-2.133 2.133-2.133s2.133 0.955 2.133 2.133z"></path>
<path fill="none" stroke="#a4acad" style="stroke: var(--color2, #a4acad)" stroke-linejoin="miter" stroke-linecap="butt" stroke-miterlimit="4" stroke-width="1.1034" d="M10.667 8.533c0 2.052-1.663 3.715-3.715 3.715s-3.715-1.663-3.715-3.715c0-2.052 1.663-3.715 3.715-3.715s3.715 1.663 3.715 3.715z"></path>
<path fill="#a4acad" style="fill: var(--color2, #a4acad)" d="M8.018 8.533c0 0.589-0.478 1.067-1.067 1.067s-1.067-0.478-1.067-1.067c0-0.589 0.478-1.067 1.067-1.067s1.067 0.478 1.067 1.067z"></path>
<path fill="none" stroke="#a4acad" style="stroke: var(--color2, #a4acad)" stroke-linejoin="miter" stroke-linecap="butt" stroke-miterlimit="4" stroke-width="1.1034" d="M27.733 25.6c0 2.052-1.663 3.715-3.715 3.715s-3.715-1.663-3.715-3.715c0-2.052 1.663-3.715 3.715-3.715s3.715 1.663 3.715 3.715z"></path>
<path fill="#a4acad" style="fill: var(--color2, #a4acad)" d="M25.085 25.6c0 0.589-0.478 1.067-1.067 1.067s-1.067-0.478-1.067-1.067c0-0.589 0.478-1.067 1.067-1.067s1.067 0.478 1.067 1.067z"></path>
</symbol>
<symbol id="icon-soup" viewBox="0 0 32 32">
<title>icon-soup</title>
<path fill="#a4acad" style="fill: var(--color2, #a4acad)" d="M30.808 1.252c-0.624-0.384-1.441-0.144-1.825 0.48l-6.58 11.527h-21.421c-0.288 0-0.48 0.192-0.48 0.48v1.393c0 4.995 2.594 9.558 6.868 12.055-0.336 0.288-0.528 0.72-0.528 1.201v2.065c0 0.288 0.192 0.48 0.48 0.48h14.361c0.288 0 0.48-0.192 0.48-0.48v-2.065c0-0.48-0.192-0.913-0.528-1.201 4.274-2.497 6.868-7.012 6.868-12.055v-1.393c0-0.288-0.192-0.48-0.48-0.48h-2.546l5.86-10.182c0.336-0.624 0.144-1.441-0.528-1.825zM27.494 14.219v0.913c0 5.043-2.834 9.51-7.348 11.719-0.192 0.096-0.288 0.336-0.24 0.528 0.048 0.24 0.24 0.384 0.48 0.384h0.192c0.336 0 0.576 0.288 0.576 0.576v1.585h-13.352v-1.585c0-0.336 0.288-0.576 0.576-0.576h0.192c0.24 0 0.432-0.144 0.48-0.384s-0.048-0.432-0.24-0.528c-4.515-2.209-7.348-6.676-7.348-11.719v-0.913h26.031zM30.472 2.596l-6.148 10.662h-0.817l6.34-10.999c0.096-0.192 0.336-0.24 0.48-0.144 0.192 0.096 0.24 0.288 0.144 0.48z"></path>
</symbol>
<symbol id="icon-sushi" viewBox="0 0 32 32">
<title>icon-sushi</title>
<path fill="#a4acad" style="fill: var(--color2, #a4acad)" d="M31.157 15.257l-2.486-2.893c-0.383-0.446-0.799-0.873-1.235-1.272-0.193-0.175-0.491-0.162-0.666 0.031s-0.162 0.491 0.031 0.666c0.361 0.329 0.705 0.68 1.027 1.045 0.087 2.271-0.366 4.541-1.313 6.605l-3.327-1.5c-0.094-0.042-0.188-0.083-0.282-0.124 0.576-2.972 0.26-6.066-0.896-8.855 1.146 0.39 3.889 2.23 4.898 2.913 0.081 0.055 0.173 0.081 0.264 0.081 0.151 0 0.3-0.073 0.391-0.207 0.146-0.216 0.090-0.509-0.126-0.655-2.035-1.378-6.045-3.52-8.489-3.745-0.4-0.533-1.036-0.878-1.752-0.878h-3.559c-0.792 0-1.487 0.423-1.872 1.055-3.275 0.599-6.264 2.311-8.436 4.839l-2.486 2.893c-0.955 1.112-1.114 2.716-0.395 3.994 0.429 0.763 1.124 1.334 1.956 1.607 0.072 0.024 0.145 0.044 0.218 0.063-0.112 1.031 0.183 2.061 0.84 2.885 0.755 0.948 1.884 1.491 3.095 1.491h6.098c0.296 0.149 0.629 0.234 0.982 0.234h3.559c0.353 0 0.687-0.085 0.983-0.234h7.203c1.212 0 2.34-0.544 3.095-1.491 0.653-0.82 0.948-1.843 0.841-2.869 0.094-0.022 0.187-0.049 0.28-0.079 0.832-0.273 1.527-0.844 1.956-1.607 0.719-1.277 0.56-2.882-0.395-3.994zM20.823 8.615c1.314 2.743 1.73 5.856 1.188 8.847-0.854-0.31-1.733-0.55-2.627-0.719v-8.085c0-0.106-0.008-0.21-0.023-0.312 0.492 0.064 0.98 0.153 1.462 0.27zM11.448 8.658v4.552c-0.909-1.319-2.023-2.495-3.289-3.473 1.037-0.533 2.143-0.933 3.292-1.187-0.002 0.036-0.003 0.072-0.003 0.108zM1.269 18.788c-0.525-0.933-0.409-2.105 0.289-2.916l1.34-1.559c0.528 0.288 1.044 0.612 1.536 0.966 0.083 0.060 1.411 1.247 1.507 1.247 0.147 0 0.366-0.397 0.459-0.525 0.152-0.211 0.402-0.007 0.191-0.16-0.47-0.338-2.564-1.978-3.064-2.259l0.518-0.603c0.929-1.081 2.017-2.001 3.217-2.737 1.721 1.253 3.163 2.891 4.187 4.761v2.004c-0.903 0.238-1.788 0.551-2.635 0.933l-0.284 0.128c-0.572-0.8-1.223-1.548-1.938-2.227-0.189-0.179-0.488-0.171-0.667 0.018s-0.171 0.488 0.018 0.667c0.626 0.594 1.199 1.245 1.708 1.938l-3.106 1.4c-1.214 0.547-2.621 0.085-3.274-1.075zM4.199 23.218c-0.498-0.625-0.723-1.405-0.641-2.187 0.47-0.008 0.937-0.111 1.374-0.308l4.269-1.924c0.724-0.327 1.478-0.599 2.247-0.814v4.041h-0.472c-0.261 0-0.472 0.211-0.472 0.472s0.211 0.472 0.472 0.472h0.472v0.373c0 0.365 0.090 0.709 0.249 1.011h-5.14c-0.923 0-1.782-0.414-2.358-1.136zM27.738 23.218c-0.575 0.722-1.435 1.136-2.358 1.136h-6.245c0.142-0.271 0.229-0.574 0.246-0.897 0.007 0 0.014 0.001 0.021 0.001h0.524c0.261 0 0.472-0.211 0.472-0.472s-0.211-0.472-0.472-0.472h-0.524c-0.006 0-0.012 0.001-0.018 0.001v-2.844c0-0.26-0.211-0.472-0.472-0.472s-0.472 0.211-0.472 0.472v3.671c0 0.687-0.558 1.245-1.245 1.245h-3.559c-0.687 0-1.245-0.558-1.245-1.245v-14.685c0-0.687 0.559-1.245 1.245-1.245h3.559c0.687 0 1.245 0.559 1.245 1.245v10.898c0 0.261 0.211 0.472 0.472 0.472s0.472-0.211 0.472-0.472v-1.852c1.177 0.236 2.324 0.603 3.416 1.096l4.269 1.924c0.418 0.188 0.862 0.29 1.311 0.306 0.082 0.782-0.143 1.563-0.641 2.188zM30.731 18.788c-0.653 1.16-2.060 1.623-3.274 1.076l-0.083-0.037c0.85-1.854 1.325-3.864 1.397-5.899l1.671 1.944c0.698 0.812 0.813 1.984 0.289 2.916z"></path>
<path fill="#a4acad" style="fill: var(--color2, #a4acad)" d="M21.325 19.236h-0.454c-0.261 0-0.472 0.211-0.472 0.472s0.211 0.472 0.472 0.472h0.454c0.261 0 0.472-0.211 0.472-0.472s-0.211-0.472-0.472-0.472z"></path>
<path fill="#a4acad" style="fill: var(--color2, #a4acad)" d="M23.877 21.23h-0.769c-0.261 0-0.472 0.211-0.472 0.472s0.211 0.472 0.472 0.472h0.769c0.26 0 0.472-0.211 0.472-0.472s-0.211-0.472-0.472-0.472z"></path>
<path fill="#a4acad" style="fill: var(--color2, #a4acad)" d="M11.063 20.561c0-0.261-0.211-0.472-0.472-0.472h-0.839c-0.261 0-0.472 0.211-0.472 0.472s0.211 0.472 0.472 0.472h0.839c0.261 0 0.472-0.211 0.472-0.472z"></path>
<path fill="#a4acad" style="fill: var(--color2, #a4acad)" d="M7.689 22.025h-1.503c-0.261 0-0.472 0.211-0.472 0.472s0.211 0.472 0.472 0.472h1.503c0.261 0 0.472-0.211 0.472-0.472s-0.211-0.472-0.472-0.472z"></path>
</symbol>
<symbol id="icon-telegram" viewBox="0 0 32 32">
<title>icon-telegram</title>
<path fill="#61a8de" style="fill: var(--color7, #61a8de)" d="M0 16c0 8.837 7.163 16 16 16s16-7.163 16-16c0-8.837-7.163-16-16-16s-16 7.163-16 16z"></path>
<path fill="#fff" style="fill: var(--color3, #fff)" d="M24.456 6.477l-21.399 8.339c-0.693 0.27-0.651 1.265 0.062 1.475l5.438 1.606 2.029 6.439c0.212 0.673 1.064 0.877 1.558 0.373l2.811-2.871 5.516 4.049c0.675 0.495 1.636 0.127 1.808-0.692l3.653-17.467c0.179-0.856-0.663-1.568-1.477-1.251zM21.773 10.353l-9.94 8.79c-0.099 0.088-0.162 0.209-0.177 0.34l-0.383 3.402c-0.012 0.111-0.168 0.126-0.201 0.019l-1.574-5.073c-0.072-0.232 0.022-0.484 0.229-0.612l11.738-7.28c0.27-0.168 0.546 0.204 0.308 0.414z"></path>
</symbol>
<symbol id="icon-wallet" viewBox="0 0 32 32">
<title>icon-wallet</title>
<path  d="M27.901 16.11v-3.68c0-1.248-0.968-2.263-2.191-2.361l-3.417-5.969c-0.317-0.552-0.828-0.947-1.44-1.11-0.609-0.163-1.246-0.077-1.791 0.24l-11.715 6.82h-2.057c-1.313 0-2.38 1.067-2.38 2.38v14.281c0 1.313 1.067 2.38 2.38 2.38h20.231c1.313 0 2.38-1.067 2.38-2.38v-3.68c0.691-0.246 1.19-0.901 1.19-1.675v-3.57c0-0.775-0.499-1.429-1.19-1.675zM24.328 10.050h-5.186l3.89-2.265 1.297 2.265zM22.44 6.753l-5.664 3.297h-2.349l7.426-4.323 0.587 1.026zM19.661 4.258c0.269-0.157 0.583-0.199 0.884-0.119 0.304 0.081 0.557 0.278 0.715 0.553l0.001 0.002-9.199 5.356h-2.349l9.949-5.792zM26.711 26.711c0 0.656-0.534 1.19-1.19 1.19h-20.231c-0.656 0-1.19-0.534-1.19-1.19v-14.281c0-0.656 0.534-1.19 1.19-1.19h20.231c0.656 0 1.19 0.534 1.19 1.19v3.57h-3.57c-1.969 0-3.57 1.601-3.57 3.57s1.601 3.57 3.57 3.57h3.57v3.57zM27.901 21.355c0 0.328-0.267 0.595-0.595 0.595h-4.165c-1.313 0-2.38-1.067-2.38-2.38s1.067-2.38 2.38-2.38h4.165c0.328 0 0.595 0.267 0.595 0.595v3.57z"></path>
<path  d="M23.14 18.38c-0.656 0-1.19 0.534-1.19 1.19s0.534 1.19 1.19 1.19 1.19-0.534 1.19-1.19c0-0.656-0.534-1.19-1.19-1.19z"></path>
</symbol>
<symbol id="icon-whatsApp" viewBox="0 0 32 32">
<title>icon-whatsApp</title>
<path fill="#1bd741" style="fill: var(--color8, #1bd741)" d="M0 16c0 8.837 7.163 16 16 16s16-7.163 16-16c0-8.837-7.163-16-16-16s-16 7.163-16 16z"></path>
<path fill="#fff" style="fill: var(--color3, #fff)" d="M5.76 26.885l1.567-5.567c-1.008-1.712-1.539-3.661-1.539-5.662 0-6.163 5.014-11.176 11.176-11.176s11.176 5.014 11.176 11.176c0 6.163-5.014 11.176-11.176 11.176-1.92 0-3.8-0.492-5.464-1.425l-5.741 1.478zM11.795 23.374l0.342 0.209c1.45 0.885 3.12 1.353 4.828 1.353 5.117 0 9.28-4.163 9.28-9.28s-4.163-9.28-9.28-9.28c-5.117 0-9.28 4.163-9.28 9.28 0 1.783 0.507 3.514 1.465 5.007l0.23 0.359-0.903 3.206 3.317-0.854z"></path>
<path fill="#fff" style="fill: var(--color3, #fff)" d="M13.825 10.454l-0.725-0.040c-0.228-0.012-0.451 0.064-0.623 0.213-0.352 0.305-0.914 0.896-1.086 1.665-0.257 1.147 0.14 2.551 1.17 3.956s2.949 3.651 6.343 4.611c1.094 0.309 1.954 0.101 2.618-0.324 0.526-0.336 0.888-0.876 1.019-1.486l0.116-0.541c0.037-0.172-0.050-0.346-0.21-0.42l-2.451-1.13c-0.159-0.073-0.348-0.027-0.455 0.112l-0.962 1.247c-0.073 0.094-0.197 0.132-0.309 0.092-0.659-0.232-2.866-1.156-4.077-3.489-0.052-0.101-0.039-0.224 0.035-0.31l0.92-1.064c0.094-0.109 0.118-0.261 0.061-0.393l-1.056-2.472c-0.056-0.132-0.182-0.22-0.325-0.228z"></path>
</symbol>
<symbol id="icon-wok" viewBox="0 0 32 32">
<title>icon-wok</title>
<path fill="#a4acad" style="fill: var(--color2, #a4acad)" d="M14.39 3.362c0.913 0 1.66-0.747 1.66-1.66s-0.747-1.66-1.66-1.66c-0.249 0-0.415 0.166-0.415 0.415s0.166 0.415 0.415 0.415c0.457 0 0.83 0.374 0.83 0.83s-0.374 0.83-0.83 0.83c-0.913 0-1.66 0.747-1.66 1.66-0.041 0.913 0.706 1.66 1.66 1.66 0.249 0 0.415-0.166 0.415-0.415s-0.166-0.415-0.415-0.415c-0.457 0-0.83-0.374-0.83-0.83s0.374-0.83 0.83-0.83z"></path>
<path fill="#a4acad" style="fill: var(--color2, #a4acad)" d="M17.669 3.32c0.913 0 1.66-0.747 1.66-1.66s-0.747-1.66-1.66-1.66c-0.249 0-0.415 0.166-0.415 0.415s0.166 0.415 0.415 0.415c0.457 0 0.83 0.374 0.83 0.83s-0.374 0.83-0.83 0.83c-0.913 0-1.66 0.747-1.66 1.66s0.747 1.66 1.66 1.66c0.249 0 0.415-0.166 0.415-0.415s-0.166-0.415-0.415-0.415c-0.457 0-0.83-0.374-0.83-0.83s0.374-0.83 0.83-0.83z"></path>
<path fill="#a4acad" style="fill: var(--color2, #a4acad)" d="M28.751 5.396c-0.207-0.083-0.457 0-0.54 0.249l-2.449 6.101h-0.498l-2.698-4.109c-0.083-0.125-0.208-0.208-0.332-0.208h-12.202c-0.125 0-0.249 0.042-0.332 0.166l-3.071 4.109h-0.374l-2.449-6.101c-0.083-0.208-0.332-0.332-0.54-0.249s-0.332 0.332-0.249 0.54l2.532 6.309 1.411 18.968c0 0.083 0 0.124 0 0.166v0.291c0 0.208 0.208 0.374 0.415 0.374h17.266c0.208 0 0.415-0.166 0.415-0.374l1.37-19.383 2.532-6.309c0.124-0.249 0-0.457-0.208-0.54zM10.24 8.259h11.787l2.241 3.486h-16.602l2.573-3.486zM25.306 12.576l-9.297 9.629-9.338-9.629h18.636zM6.463 13.572l8.924 9.256-7.678 7.471-1.245-16.726zM7.999 31.17l7.969-7.761 7.72 7.761h-15.689zM24.31 30.672l-7.72-7.886 8.965-9.297-1.245 17.183z"></path>
</symbol>
</defs>
</svg>
